<svg width="19" height="18" viewBox="0 0 19 18" fill="none" xmlns="http://www.w3.org/2000/svg">
<path d="M9.5 0C7.62108 0 5.78435 0.527841 4.22209 1.51677C2.65982 2.50571 1.44218 3.91131 0.723149 5.55585C0.00411622 7.20038 -0.184015 9.00998 0.182544 10.7558C0.549104 12.5016 1.45389 14.1053 2.78249 15.364C4.11109 16.6226 5.80383 17.4798 7.64665 17.8271C9.48946 18.1743 11.3996 17.9961 13.1355 17.3149C14.8714 16.6337 16.3551 15.4802 17.399 14.0001C18.4428 12.5201 19 10.78 19 9C18.9973 6.61384 17.9955 4.32616 16.2145 2.63889C14.4335 0.951621 12.0187 0.00258081 9.5 0V0ZM9.5 16.5C7.93423 16.5 6.40363 16.0601 5.10174 15.236C3.79985 14.4119 2.78515 13.2406 2.18596 11.8701C1.58676 10.4997 1.42999 8.99168 1.73545 7.53682C2.04092 6.08196 2.79491 4.74559 3.90207 3.6967C5.00924 2.6478 6.41986 1.9335 7.95554 1.64411C9.49122 1.35472 11.083 1.50325 12.5296 2.0709C13.9762 2.63856 15.2126 3.59985 16.0825 4.83322C16.9524 6.06659 17.4167 7.51664 17.4167 9C17.4144 10.9885 16.5795 12.8948 15.0954 14.3009C13.6112 15.7069 11.5989 16.4978 9.5 16.5ZM13.4583 9C13.4583 9.19891 13.3749 9.38968 13.2265 9.53033C13.078 9.67098 12.8766 9.75 12.6667 9.75H10.2917V12C10.2917 12.1989 10.2083 12.3897 10.0598 12.5303C9.91133 12.671 9.70997 12.75 9.5 12.75C9.29004 12.75 9.08868 12.671 8.94021 12.5303C8.79174 12.3897 8.70834 12.1989 8.70834 12V9.75H6.33334C6.12337 9.75 5.92201 9.67098 5.77354 9.53033C5.62508 9.38968 5.54167 9.19891 5.54167 9C5.54167 8.80109 5.62508 8.61032 5.77354 8.46967C5.92201 8.32902 6.12337 8.25 6.33334 8.25H8.70834V6C8.70834 5.80109 8.79174 5.61032 8.94021 5.46967C9.08868 5.32902 9.29004 5.25 9.5 5.25C9.70997 5.25 9.91133 5.32902 10.0598 5.46967C10.2083 5.61032 10.2917 5.80109 10.2917 6V8.25H12.6667C12.8766 8.25 13.078 8.32902 13.2265 8.46967C13.3749 8.61032 13.4583 8.80109 13.4583 9Z" fill="#FED501"/>
</svg>
