<svg width="82" height="50" viewBox="0 0 82 50" fill="none" xmlns="http://www.w3.org/2000/svg">
<path d="M3.82289 46.8951H0V0H3.82289V46.8951ZM10.6777 0H6.85483V34.6928H10.6777V0ZM16.412 0H12.5892V34.6928H16.412V0ZM35.5265 0H31.7036V41.6314H35.5265V0ZM22.1464 0H18.3235V41.6314H22.1464V0ZM29.7921 0H25.9693V41.6314H29.7921V0ZM45.0837 0H41.2608V41.6314H45.0837V0Z" fill="#FED501"/>
<path d="M42.235 41.6313H38.4121V0H42.235V41.6313ZM49.8808 0H46.0579V41.6313H49.8808V0ZM56.1292 0H52.3063V41.6313H56.1292V0ZM74.9272 0H71.1044V41.6313H74.9272V0ZM62.694 0H58.8711V41.6313H62.694V0ZM68.6788 0H64.8559V41.6313H68.6788V0ZM81.9666 0H78.1437V49.479H81.9666V0Z" fill="#FED501"/>
</svg>
