<svg width="18" height="18" viewBox="0 0 18 18" fill="none" xmlns="http://www.w3.org/2000/svg">
<path d="M9.00001 17.4375C7.33123 17.4375 5.69992 16.9427 4.31238 16.0155C2.92484 15.0884 1.84338 13.7706 1.20477 12.2289C0.566156 10.6871 0.399065 8.99064 0.724628 7.35393C1.05019 5.71721 1.85379 4.21379 3.03379 3.03379C4.2138 1.85378 5.71722 1.05019 7.35393 0.724624C8.99065 0.399061 10.6871 0.566152 12.2289 1.20477C13.7706 1.84338 15.0884 2.92484 16.0155 4.31238C16.9427 5.69992 17.4375 7.33122 17.4375 9C17.4375 11.2378 16.5486 13.3839 14.9662 14.9662C13.3839 16.5486 11.2378 17.4375 9.00001 17.4375ZM9.00001 1.6875C7.55373 1.6875 6.13993 2.11637 4.9374 2.91988C3.73486 3.72339 2.7976 4.86544 2.24414 6.20163C1.69067 7.53781 1.54586 9.00811 1.82801 10.4266C2.11017 11.8451 2.80661 13.1481 3.82929 14.1707C4.85196 15.1934 6.15492 15.8898 7.57341 16.172C8.99189 16.4542 10.4622 16.3093 11.7984 15.7559C13.1346 15.2024 14.2766 14.2651 15.0801 13.0626C15.8836 11.8601 16.3125 10.4463 16.3125 9C16.3125 7.06061 15.5421 5.20064 14.1707 3.82928C12.7994 2.45792 10.9394 1.6875 9.00001 1.6875Z" fill="#FED501"/>
<path d="M7.68946 12.375C7.61233 12.3748 7.53608 12.3586 7.46544 12.3277C7.3948 12.2967 7.33128 12.2516 7.27883 12.195L4.65196 9.3825C4.5622 9.27181 4.5178 9.13118 4.52774 8.98901C4.53767 8.84685 4.60119 8.71376 4.70547 8.61662C4.80974 8.51949 4.947 8.46555 5.08951 8.46572C5.23202 8.46588 5.36915 8.52013 5.47321 8.6175L7.68946 10.9856L12.527 5.805C12.5755 5.7451 12.6359 5.69583 12.7043 5.66024C12.7727 5.62466 12.8477 5.60353 12.9247 5.59815C13.0016 5.59278 13.0788 5.60328 13.1515 5.629C13.2242 5.65473 13.2908 5.69513 13.3473 5.74769C13.4037 5.80025 13.4487 5.86386 13.4795 5.93455C13.5103 6.00525 13.5263 6.08152 13.5264 6.15864C13.5265 6.23576 13.5107 6.31207 13.48 6.38283C13.4494 6.4536 13.4045 6.51731 13.3482 6.57L8.10008 12.195C8.04764 12.2516 7.98412 12.2967 7.91348 12.3277C7.84284 12.3586 7.76659 12.3748 7.68946 12.375Z" fill="#FED501"/>
</svg>
