<svg width="11" height="13" viewBox="0 0 11 13" fill="none" xmlns="http://www.w3.org/2000/svg">
<path fill-rule="evenodd" clip-rule="evenodd" d="M9.67291 2.20158L9.6739 2.20369C10.0403 2.20475 10.3711 2.36344 10.6108 2.61947C10.8485 2.87443 10.997 3.22673 10.997 3.61605H10.999V3.61816V11.5824V11.5834H10.997C10.996 11.9727 10.8475 12.3271 10.6078 12.5842C10.3691 12.8381 10.0393 12.9968 9.67489 12.9968V12.9989H9.67291H3.81093H3.80994V12.9968C3.44449 12.9958 3.11272 12.8381 2.87305 12.5811C2.63537 12.3261 2.48681 11.9738 2.48582 11.5845C2.48582 8.83805 2.48582 6.36458 2.48582 3.61816V3.61711H2.4878C2.48879 3.22673 2.63834 2.87231 2.878 2.61629C3.11668 2.36239 3.44548 2.20369 3.81093 2.20264V2.20052H3.81291C5.76591 2.20158 7.71991 2.20158 9.67291 2.20158ZM0.00198073 7.97477L0 1.41659V1.41553H0.00198073C0.0029711 1.02515 0.152516 0.670736 0.391195 0.414714C0.629873 0.160807 0.959665 0.00211589 1.32412 0.00105794V0H1.3261H7.18808C7.94967 0 8.0695 1.05371 7.18907 1.07487H1.32709H1.32511V1.07275C1.23796 1.07275 1.15873 1.1119 1.1003 1.17537C1.04187 1.23673 1.00522 1.32349 1.00522 1.41553H1.0072V1.41659V1.75195C1.0072 3.82658 1.0072 5.90015 1.0072 7.97371C1.0072 8.84758 0.00198073 8.89624 0.00198073 7.97477ZM9.99379 11.5834V3.61816V3.61605H9.99577C9.99577 3.52401 9.95912 3.43831 9.8997 3.3759C9.84127 3.31453 9.76105 3.27433 9.6739 3.27433V3.27645H9.67291H3.81093H3.80895V3.27433C3.7218 3.27433 3.64257 3.31453 3.58414 3.37695C3.5257 3.43831 3.48906 3.52506 3.48906 3.61711H3.49104V3.61816V11.5824V11.5845H3.48906C3.48906 11.6776 3.52669 11.7622 3.58513 11.8246C3.64356 11.887 3.72378 11.9262 3.80994 11.9262V11.9241H3.81093H9.67291H9.67489V11.9262C9.76105 11.9262 9.84127 11.886 9.8997 11.8236C9.95813 11.7622 9.99478 11.6755 9.99478 11.5834H9.99379Z" fill="black"/>
</svg>
