<svg width="43" height="44" viewBox="0 0 43 44" fill="none" xmlns="http://www.w3.org/2000/svg">
<path d="M25.7997 22.8698L26.6739 18.3294H22.3031V14.6971C22.3031 13.335 23.0025 12.8809 24.9256 12.8809H26.6739V8.3405C26.6739 8.3405 24.9256 8.3405 23.1773 8.3405C19.5933 8.3405 17.0582 10.5199 17.0582 14.6971V18.3294H12.6875V22.8698H17.0582V35.583H22.3031V22.8698H25.7997Z" fill="#FED501"/>
<path d="M21.4287 0.167763C9.80259 0.167763 0.449219 9.88425 0.449219 21.9617C0.449219 34.0392 9.80259 43.7557 21.4287 43.7557C33.0549 43.7557 42.4083 34.0392 42.4083 21.9617C42.4083 9.88425 33.0549 0.167763 21.4287 0.167763ZM21.4287 39.2153C12.2502 39.2153 4.81995 31.4966 4.81995 21.9617C4.81995 12.4269 12.2502 4.70818 21.4287 4.70818C30.6073 4.70818 38.0375 12.4269 38.0375 21.9617C38.0375 31.4966 30.6073 39.2153 21.4287 39.2153Z" fill="#FED501"/>
</svg>
