<svg width="221" height="221" viewBox="0 0 221 221" fill="none" xmlns="http://www.w3.org/2000/svg">
<g clip-path="url(#clip0_328_57937)">
<path d="M147.333 73.6667C145.606 71.9404 143.265 70.9706 140.823 70.9706C138.381 70.9706 136.039 71.9404 134.313 73.6667L110.5 97.4794L86.687 73.6667C84.9503 71.9893 82.6243 71.0611 80.2099 71.0821C77.7955 71.1031 75.4859 72.0715 73.7786 73.7788C72.0713 75.4861 71.1029 77.7957 71.0819 80.2101C71.0609 82.6245 71.9891 84.9505 73.6664 86.6872L97.4792 110.5L73.6664 134.313C71.9891 136.049 71.0609 138.376 71.0819 140.79C71.1029 143.204 72.0713 145.514 73.7786 147.221C75.4859 148.928 77.7955 149.897 80.2099 149.918C82.6243 149.939 84.9503 149.011 86.687 147.333L110.5 123.521L134.313 147.333C136.049 149.011 138.375 149.939 140.79 149.918C143.204 149.897 145.514 148.928 147.221 147.221C148.928 145.514 149.897 143.204 149.918 140.79C149.939 138.376 149.01 136.049 147.333 134.313L123.52 110.5L147.333 86.6872C149.059 84.9604 150.029 82.6187 150.029 80.1769C150.029 77.7352 149.059 75.3935 147.333 73.6667Z" fill="#FED501"/>
<path d="M110.5 0C88.6452 0 67.2812 6.48071 49.1095 18.6226C30.9379 30.7645 16.7748 48.0222 8.41136 68.2135C0.0478781 88.4047 -2.14039 110.623 2.12328 132.057C6.38694 153.492 16.911 173.182 32.3647 188.635C47.8185 204.089 67.5077 214.613 88.9426 218.877C110.377 223.14 132.595 220.952 152.787 212.589C172.978 204.225 190.236 190.062 202.377 171.891C214.519 153.719 221 132.355 221 110.5C220.968 81.2033 209.316 53.1156 188.6 32.3997C167.884 11.6838 139.797 0.0316866 110.5 0V0ZM110.5 202.583C92.2877 202.583 74.4843 197.183 59.3413 187.064C44.1983 176.946 32.3957 162.565 25.4261 145.739C18.4566 128.913 16.633 110.398 20.1861 92.5354C23.7391 74.673 32.5092 58.2653 45.3873 45.3872C58.2654 32.5092 74.6731 23.7391 92.5355 20.186C110.398 16.633 128.913 18.4565 145.739 25.4261C162.565 32.3957 176.946 44.1982 187.065 59.3412C197.183 74.4843 202.583 92.2876 202.583 110.5C202.557 134.914 192.846 158.32 175.583 175.583C158.32 192.846 134.914 202.557 110.5 202.583Z" fill="#FED501"/>
</g>
<defs>
<clipPath id="clip0_328_57937">
<rect width="221" height="221" fill="white"/>
</clipPath>
</defs>
</svg>
