<svg width="41" height="43" viewBox="0 0 41 43" fill="none" xmlns="http://www.w3.org/2000/svg">
<path d="M40.184 21.8065C40.184 20.3683 40.05 18.8837 39.8267 17.4918H20.4883V25.7037H31.5643C31.1177 28.3483 29.6439 30.668 27.4555 32.1527L34.0653 37.4881C37.9509 33.7301 40.184 28.2555 40.184 21.8065Z" fill="#FED501"/>
<path d="M20.4879 42.5917C26.0259 42.5917 30.6707 40.6895 34.065 37.4418L27.4551 32.1527C25.624 33.4518 23.2569 34.1941 20.4879 34.1941C15.1286 34.1941 10.6178 30.4361 8.96529 25.4254L2.17676 30.8537C5.66035 38.0449 12.7168 42.5917 20.4879 42.5917Z" fill="#FED501"/>
<path d="M8.96576 25.379C8.11719 22.7345 8.11719 19.858 8.96576 17.2135L2.17724 11.7388C-0.725746 17.7702 -0.725746 24.8687 2.17724 30.8537L8.96576 25.379Z" fill="#FED501"/>
<path d="M20.488 8.44476C23.391 8.39837 26.2493 9.55825 28.3484 11.646L34.199 5.52186C30.4921 1.90302 25.5794 -0.0455856 20.488 0.000809732C12.7169 0.000809732 5.66035 4.54755 2.17676 11.7388L8.9653 17.2135C10.6178 12.1564 15.1286 8.44476 20.488 8.44476Z" fill="#FED501"/>
</svg>
