<svg width="256" height="171" viewBox="0 0 256 171" fill="none" xmlns="http://www.w3.org/2000/svg">
<path d="M245.333 75H10.6667C4.77563 75 0 79.7756 0 85.6667C0 91.5577 4.77563 96.3333 10.6667 96.3333H245.333C251.224 96.3333 256 91.5577 256 85.6667C256 79.7756 251.224 75 245.333 75Z" fill="#FED501"/>
<path d="M245.333 0.333374H10.6667C4.77563 0.333374 0 5.109 0 11C0 16.8911 4.77563 21.6667 10.6667 21.6667H245.333C251.224 21.6667 256 16.8911 256 11C256 5.109 251.224 0.333374 245.333 0.333374Z" fill="#FED501"/>
<path d="M245.333 149.667H10.6667C4.77563 149.667 0 154.442 0 160.333C0 166.224 4.77563 171 10.6667 171H245.333C251.224 171 256 166.224 256 160.333C256 154.442 251.224 149.667 245.333 149.667Z" fill="#FED501"/>
</svg>
