<svg width="17" height="23" viewBox="0 0 17 23" fill="none" xmlns="http://www.w3.org/2000/svg">
<path d="M8 11C9.18669 11 10.3467 10.6774 11.3334 10.0731C12.3201 9.46874 13.0891 8.60975 13.5433 7.60476C13.9974 6.59977 14.1162 5.4939 13.8847 4.427C13.6532 3.36011 13.0818 2.3801 12.2426 1.61091C11.4035 0.841726 10.3344 0.317902 9.17054 0.105683C8.00665 -0.106535 6.80025 0.00238307 5.7039 0.418665C4.60754 0.834947 3.67047 1.5399 3.01118 2.44437C2.35189 3.34884 2 4.4122 2 5.5C2.00159 6.95824 2.63424 8.35635 3.75911 9.38748C4.88399 10.4186 6.40919 10.9985 8 11ZM8 1.83334C8.79112 1.83334 9.56448 2.04838 10.2223 2.45128C10.8801 2.85418 11.3928 3.42683 11.6955 4.09683C11.9983 4.76682 12.0775 5.50407 11.9231 6.21533C11.7688 6.9266 11.3878 7.57993 10.8284 8.09273C10.269 8.60552 9.55628 8.95473 8.78036 9.09621C8.00444 9.23769 7.20017 9.16508 6.46926 8.88756C5.73836 8.61004 5.11365 8.14007 4.67412 7.53709C4.2346 6.93411 4 6.2252 4 5.5C4 4.52754 4.42143 3.59491 5.17157 2.90728C5.92172 2.21964 6.93913 1.83334 8 1.83334V1.83334Z" fill="#190642"/>
<path d="M8.5 13C6.24643 13.0026 4.08587 13.9517 2.49235 15.639C0.898836 17.3262 0.00249981 19.6139 0 22C0 22.2652 0.0995036 22.5196 0.276621 22.7071C0.453739 22.8946 0.693962 23 0.944444 23C1.19493 23 1.43515 22.8946 1.61227 22.7071C1.78938 22.5196 1.88889 22.2652 1.88889 22C1.88889 20.1435 2.58541 18.363 3.82524 17.0503C5.06506 15.7375 6.74662 15 8.5 15C10.2534 15 11.9349 15.7375 13.1748 17.0503C14.4146 18.363 15.1111 20.1435 15.1111 22C15.1111 22.2652 15.2106 22.5196 15.3877 22.7071C15.5648 22.8946 15.8051 23 16.0556 23C16.306 23 16.5463 22.8946 16.7234 22.7071C16.9005 22.5196 17 22.2652 17 22C16.9975 19.6139 16.1012 17.3262 14.5076 15.639C12.9141 13.9517 10.7536 13.0026 8.5 13V13Z" fill="#190642"/>
</svg>
