<svg width="162" height="162" viewBox="0 0 162 162" fill="none" xmlns="http://www.w3.org/2000/svg">
<path d="M81 14.5935C102.627 14.5935 105.192 14.6745 113.731 15.066C122.56 15.471 131.652 17.4825 138.085 23.9153C144.578 30.4088 146.529 39.4132 146.934 48.2692C147.326 56.808 147.406 59.373 147.406 81C147.406 102.627 147.326 105.192 146.934 113.731C146.536 122.513 144.477 131.693 138.085 138.085C131.591 144.578 122.594 146.529 113.731 146.934C105.192 147.326 102.627 147.406 81 147.406C59.373 147.406 56.808 147.326 48.2692 146.934C39.555 146.536 30.2535 144.43 23.9153 138.085C17.4555 131.625 15.471 122.533 15.066 113.731C14.6745 105.192 14.5935 102.627 14.5935 81C14.5935 59.373 14.6745 56.808 15.066 48.2692C15.4643 39.5213 17.5432 30.2873 23.9153 23.9153C30.3953 17.4352 39.4335 15.471 48.2692 15.066C56.808 14.6745 59.373 14.5935 81 14.5935ZM81 0C59.0018 0 56.241 0.0945 47.601 0.486C35.0798 1.05975 22.6462 4.54275 13.5945 13.5945C4.509 22.68 1.05975 35.0865 0.486 47.601C0.0945 56.241 0 59.0018 0 81C0 102.998 0.0945 105.759 0.486 114.399C1.05975 126.907 4.55625 139.374 13.5945 148.406C22.6733 157.484 35.1 160.94 47.601 161.514C56.241 161.906 59.0018 162 81 162C102.998 162 105.759 161.906 114.399 161.514C126.913 160.94 139.361 157.451 148.406 148.406C157.498 139.313 160.94 126.913 161.514 114.399C161.906 105.759 162 102.998 162 81C162 59.0018 161.906 56.241 161.514 47.601C160.94 35.0798 157.451 22.6395 148.406 13.5945C139.34 4.52925 126.88 1.053 114.399 0.486C105.759 0.0945 102.998 0 81 0Z" fill="#FED501"/>
<path d="M80.9998 39.4065C58.0295 39.4065 39.4062 58.0297 39.4062 81C39.4062 103.97 58.0295 122.594 80.9998 122.594C103.97 122.594 122.593 103.97 122.593 81C122.593 58.0297 103.97 39.4065 80.9998 39.4065ZM80.9998 108C66.089 108 53.9998 95.9107 53.9998 81C53.9998 66.0892 66.089 54 80.9998 54C95.9105 54 108 66.0892 108 81C108 95.9107 95.9105 108 80.9998 108Z" fill="#FED501"/>
<path d="M124.241 47.4796C129.609 47.4796 133.961 43.1278 133.961 37.7596C133.961 32.3913 129.609 28.0396 124.241 28.0396C118.872 28.0396 114.521 32.3913 114.521 37.7596C114.521 43.1278 118.872 47.4796 124.241 47.4796Z" fill="#FED501"/>
</svg>
