<svg width="221" height="188" viewBox="0 0 221 188" fill="none" xmlns="http://www.w3.org/2000/svg">
<path d="M211.589 182.154H213.677L209.675 176.101C212.122 176.101 213.419 174.547 213.438 172.642C213.438 172.569 213.438 172.486 213.429 172.413C213.429 169.818 211.865 168.577 208.654 168.577H203.466V182.154H205.416V176.239H207.817L211.589 182.154ZM207.679 174.703H205.416V170.113H208.286C209.767 170.113 211.46 170.352 211.46 172.293C211.46 174.519 209.749 174.703 207.67 174.703" fill="#FED501"/>
<path d="M159.055 159.056H131.394V115.739C131.394 105.409 131.21 92.1171 117.008 92.1171C102.602 92.1171 100.395 103.367 100.395 114.994V159.056H72.7434V69.9758H99.3001V82.1457H99.668C105.086 72.8918 115.149 67.3634 125.866 67.759C153.904 67.759 159.064 86.2024 159.064 110.183L159.055 159.056ZM41.5322 57.7968C32.6646 57.7968 25.4804 50.6126 25.4804 41.745C25.4804 32.8775 32.6646 25.6933 41.5322 25.6933C50.3997 25.6933 57.5839 32.8775 57.5839 41.745C57.5839 50.6126 50.3997 57.7968 41.5322 57.7968ZM55.3578 159.056H27.6697V69.9758H55.3578V159.056ZM172.844 0.0104552H13.7705C6.25512 -0.0723332 0.0919871 5.95282 0 13.4682V173.195C0.0919871 180.719 6.25512 186.744 13.7705 186.661H172.844C180.378 186.753 186.568 180.728 186.669 173.195V13.459C186.559 5.92522 180.368 -0.0999298 172.844 0.00125604" fill="#FED501"/>
<path d="M207.918 162.533C200.891 162.598 195.243 168.356 195.316 175.384C195.381 182.412 201.139 188.06 208.167 187.986C215.195 187.922 220.843 182.163 220.769 175.135C220.705 168.2 215.093 162.598 208.167 162.533H207.918ZM208.213 186.523C202.05 186.625 196.678 181.722 196.576 175.559C196.475 169.395 201.387 164.318 207.55 164.217C213.714 164.115 218.791 169.027 218.892 175.191C218.892 175.255 218.892 175.31 218.892 175.375C219.021 181.4 214.238 186.395 208.213 186.523H207.928H208.213Z" fill="#FED501"/>
</svg>
