<svg width="175" height="59" viewBox="0 0 175 59" fill="none" xmlns="http://www.w3.org/2000/svg">
<circle cx="29.3657" cy="29.3657" r="27.8657" stroke="#FED501" stroke-width="3"/>
<path d="M11.0117 15.1777C10.1833 15.1777 9.51172 15.8493 9.51172 16.6777C9.51172 17.5061 10.1833 18.1777 11.0117 18.1777V15.1777ZM26.6123 23.9393L25.1531 23.5919L25.132 23.6804L25.1218 23.7708L26.6123 23.9393ZM11.0117 27.5029C10.1833 27.5029 9.51172 28.1745 9.51172 29.0029C9.51172 29.8313 10.1833 30.5029 11.0117 30.5029V27.5029ZM20.9793 41.9737V43.4737H21L21.0206 43.4731L20.9793 41.9737ZM11.0117 40.4737C10.1833 40.4737 9.51172 41.1453 9.51172 41.9737C9.51172 42.8021 10.1833 43.4737 11.0117 43.4737V40.4737ZM11.0117 18.1777H19.9239V15.1777H11.0117V18.1777ZM19.9239 18.1777C22.5474 18.1777 23.906 19.0285 24.5816 19.9429C25.2876 20.8987 25.4771 22.2311 25.1531 23.5919L28.0715 24.2868C28.5454 22.296 28.3517 19.9976 26.9946 18.1604C25.6069 16.282 23.2225 15.1777 19.9239 15.1777V18.1777ZM25.1218 23.7708C24.7363 27.1809 21.4259 27.2236 20.4404 27.6031L21.5183 30.4027C21.0409 30.5865 27.4509 29.8745 28.1028 24.1078L25.1218 23.7708ZM11.0117 30.5029H20.9793V27.5029H11.0117V30.5029ZM20.7588 30.4866C23.4886 30.8924 24.6588 31.7515 25.1979 32.4664C25.7529 33.2024 25.8703 34.0802 25.8703 35.0481H28.8703C28.8703 33.9031 28.7532 32.1985 27.5932 30.6602C26.4174 29.1009 24.392 27.9937 21.1999 27.5192L20.7588 30.4866ZM25.8703 36.4277C25.8703 37.7935 25.1753 38.7439 24.1465 39.4241C23.0705 40.1355 21.7505 40.4519 20.938 40.4743L21.0206 43.4731C22.3385 43.4368 24.2141 42.9758 25.801 41.9266C27.4351 40.8462 28.8703 39.053 28.8703 36.4277H25.8703ZM20.9793 40.4737H11.0117V43.4737H20.9793V40.4737ZM25.8703 35.0481V36.4277H28.8703V35.0481H25.8703Z" fill="#FED501"/>
<path d="M32.3184 16.7576H48.1982" stroke="#FED501" stroke-width="3" stroke-linecap="round"/>
<path d="M32.9131 28.986V41.9786" stroke="#FED501" stroke-width="3" stroke-linecap="round"/>
<path d="M32.9131 28.9012H46.0755" stroke="#FED501" stroke-width="3" stroke-linecap="round"/>
<path d="M78.2031 29.5117H73.8203L73.7969 27.0977H77.4766C78.125 27.0977 78.6562 27.0156 79.0703 26.8516C79.4844 26.6797 79.793 26.4336 79.9961 26.1133C80.207 25.7852 80.3125 25.3867 80.3125 24.918C80.3125 24.3867 80.2109 23.957 80.0078 23.6289C79.8125 23.3008 79.5039 23.0625 79.082 22.9141C78.668 22.7656 78.1328 22.6914 77.4766 22.6914H75.0391V37H71.5234V19.9375H77.4766C78.4688 19.9375 79.3555 20.0312 80.1367 20.2188C80.9258 20.4062 81.5938 20.6914 82.1406 21.0742C82.6875 21.457 83.1055 21.9414 83.3945 22.5273C83.6836 23.1055 83.8281 23.793 83.8281 24.5898C83.8281 25.293 83.668 25.9414 83.3477 26.5352C83.0352 27.1289 82.5391 27.6133 81.8594 27.9883C81.1875 28.3633 80.3086 28.5703 79.2227 28.6094L78.2031 29.5117ZM78.0508 37H72.8594L74.2305 34.2578H78.0508C78.668 34.2578 79.1719 34.1602 79.5625 33.9648C79.9531 33.7617 80.2422 33.4883 80.4297 33.1445C80.6172 32.8008 80.7109 32.4062 80.7109 31.9609C80.7109 31.4609 80.625 31.0273 80.4531 30.6602C80.2891 30.293 80.0234 30.0117 79.6562 29.8164C79.2891 29.6133 78.8047 29.5117 78.2031 29.5117H74.8164L74.8398 27.0977H79.0586L79.8672 28.0469C80.9062 28.0312 81.7422 28.2148 82.375 28.5977C83.0156 28.9727 83.4805 29.4609 83.7695 30.0625C84.0664 30.6641 84.2148 31.3086 84.2148 31.9961C84.2148 33.0898 83.9766 34.0117 83.5 34.7617C83.0234 35.5039 82.3242 36.0625 81.4023 36.4375C80.4883 36.8125 79.3711 37 78.0508 37ZM92.4766 37.2344C91.4922 37.2344 90.6094 37.0781 89.8281 36.7656C89.0469 36.4453 88.3828 36.0039 87.8359 35.4414C87.2969 34.8789 86.8828 34.2266 86.5938 33.4844C86.3047 32.7344 86.1602 31.9375 86.1602 31.0938V30.625C86.1602 29.6641 86.2969 28.7852 86.5703 27.9883C86.8438 27.1914 87.2344 26.5 87.7422 25.9141C88.2578 25.3281 88.8828 24.8789 89.6172 24.5664C90.3516 24.2461 91.1797 24.0859 92.1016 24.0859C93 24.0859 93.7969 24.2344 94.4922 24.5312C95.1875 24.8281 95.7695 25.25 96.2383 25.7969C96.7148 26.3438 97.0742 27 97.3164 27.7656C97.5586 28.5234 97.6797 29.3672 97.6797 30.2969V31.7031H87.6016V29.4531H94.3633V29.1953C94.3633 28.7266 94.2773 28.3086 94.1055 27.9414C93.9414 27.5664 93.6914 27.2695 93.3555 27.0508C93.0195 26.832 92.5898 26.7227 92.0664 26.7227C91.6211 26.7227 91.2383 26.8203 90.918 27.0156C90.5977 27.2109 90.3359 27.4844 90.1328 27.8359C89.9375 28.1875 89.7891 28.6016 89.6875 29.0781C89.5938 29.5469 89.5469 30.0625 89.5469 30.625V31.0938C89.5469 31.6016 89.6172 32.0703 89.7578 32.5C89.9062 32.9297 90.1133 33.3008 90.3789 33.6133C90.6523 33.9258 90.9805 34.168 91.3633 34.3398C91.7539 34.5117 92.1953 34.5977 92.6875 34.5977C93.2969 34.5977 93.8633 34.4805 94.3867 34.2461C94.918 34.0039 95.375 33.6406 95.7578 33.1562L97.3984 34.9375C97.1328 35.3203 96.7695 35.6875 96.3086 36.0391C95.8555 36.3906 95.3086 36.6797 94.668 36.9062C94.0273 37.125 93.2969 37.2344 92.4766 37.2344ZM105.812 24.3203V26.7109H98.4297V24.3203H105.812ZM100.258 21.1914H103.633V33.1797C103.633 33.5469 103.68 33.8281 103.773 34.0234C103.875 34.2188 104.023 34.3555 104.219 34.4336C104.414 34.5039 104.66 34.5391 104.957 34.5391C105.168 34.5391 105.355 34.5312 105.52 34.5156C105.691 34.4922 105.836 34.4688 105.953 34.4453L105.965 36.9297C105.676 37.0234 105.363 37.0977 105.027 37.1523C104.691 37.207 104.32 37.2344 103.914 37.2344C103.172 37.2344 102.523 37.1133 101.969 36.8711C101.422 36.6211 101 36.2227 100.703 35.6758C100.406 35.1289 100.258 34.4102 100.258 33.5195V21.1914ZM111.461 19.9375V37H107.945V19.9375H111.461ZM118.258 27.2266V29.9688H110.5V27.2266H118.258ZM119.078 19.9375V22.6914H110.5V19.9375H119.078ZM123.977 27.0859V37H120.602V24.3203H123.777L123.977 27.0859ZM127.797 24.2383L127.738 27.3672C127.574 27.3438 127.375 27.3242 127.141 27.3086C126.914 27.2852 126.707 27.2734 126.52 27.2734C126.043 27.2734 125.629 27.3359 125.277 27.4609C124.934 27.5781 124.645 27.7539 124.41 27.9883C124.184 28.2227 124.012 28.5078 123.895 28.8438C123.785 29.1797 123.723 29.5625 123.707 29.9922L123.027 29.7812C123.027 28.9609 123.109 28.207 123.273 27.5195C123.438 26.8242 123.676 26.2188 123.988 25.7031C124.309 25.1875 124.699 24.7891 125.16 24.5078C125.621 24.2266 126.148 24.0859 126.742 24.0859C126.93 24.0859 127.121 24.1016 127.316 24.1328C127.512 24.1562 127.672 24.1914 127.797 24.2383ZM132.953 24.3203V37H129.566V24.3203H132.953ZM129.355 21.0156C129.355 20.5234 129.527 20.1172 129.871 19.7969C130.215 19.4766 130.676 19.3164 131.254 19.3164C131.824 19.3164 132.281 19.4766 132.625 19.7969C132.977 20.1172 133.152 20.5234 133.152 21.0156C133.152 21.5078 132.977 21.9141 132.625 22.2344C132.281 22.5547 131.824 22.7148 131.254 22.7148C130.676 22.7148 130.215 22.5547 129.871 22.2344C129.527 21.9141 129.355 21.5078 129.355 21.0156ZM141.578 37.2344C140.594 37.2344 139.711 37.0781 138.93 36.7656C138.148 36.4453 137.484 36.0039 136.938 35.4414C136.398 34.8789 135.984 34.2266 135.695 33.4844C135.406 32.7344 135.262 31.9375 135.262 31.0938V30.625C135.262 29.6641 135.398 28.7852 135.672 27.9883C135.945 27.1914 136.336 26.5 136.844 25.9141C137.359 25.3281 137.984 24.8789 138.719 24.5664C139.453 24.2461 140.281 24.0859 141.203 24.0859C142.102 24.0859 142.898 24.2344 143.594 24.5312C144.289 24.8281 144.871 25.25 145.34 25.7969C145.816 26.3438 146.176 27 146.418 27.7656C146.66 28.5234 146.781 29.3672 146.781 30.2969V31.7031H136.703V29.4531H143.465V29.1953C143.465 28.7266 143.379 28.3086 143.207 27.9414C143.043 27.5664 142.793 27.2695 142.457 27.0508C142.121 26.832 141.691 26.7227 141.168 26.7227C140.723 26.7227 140.34 26.8203 140.02 27.0156C139.699 27.2109 139.438 27.4844 139.234 27.8359C139.039 28.1875 138.891 28.6016 138.789 29.0781C138.695 29.5469 138.648 30.0625 138.648 30.625V31.0938C138.648 31.6016 138.719 32.0703 138.859 32.5C139.008 32.9297 139.215 33.3008 139.48 33.6133C139.754 33.9258 140.082 34.168 140.465 34.3398C140.855 34.5117 141.297 34.5977 141.789 34.5977C142.398 34.5977 142.965 34.4805 143.488 34.2461C144.02 34.0039 144.477 33.6406 144.859 33.1562L146.5 34.9375C146.234 35.3203 145.871 35.6875 145.41 36.0391C144.957 36.3906 144.41 36.6797 143.77 36.9062C143.129 37.125 142.398 37.2344 141.578 37.2344ZM152.008 27.0273V37H148.633V24.3203H151.797L152.008 27.0273ZM151.516 30.2148H150.602C150.602 29.2773 150.723 28.4336 150.965 27.6836C151.207 26.9258 151.547 26.2812 151.984 25.75C152.422 25.2109 152.941 24.8008 153.543 24.5195C154.152 24.2305 154.832 24.0859 155.582 24.0859C156.176 24.0859 156.719 24.1719 157.211 24.3438C157.703 24.5156 158.125 24.7891 158.477 25.1641C158.836 25.5391 159.109 26.0352 159.297 26.6523C159.492 27.2695 159.59 28.0234 159.59 28.9141V37H156.191V28.9023C156.191 28.3398 156.113 27.9023 155.957 27.5898C155.801 27.2773 155.57 27.0586 155.266 26.9336C154.969 26.8008 154.602 26.7344 154.164 26.7344C153.711 26.7344 153.316 26.8242 152.98 27.0039C152.652 27.1836 152.379 27.4336 152.16 27.7539C151.949 28.0664 151.789 28.4336 151.68 28.8555C151.57 29.2773 151.516 29.7305 151.516 30.2148ZM169.645 34.2344V19H173.043V37H169.984L169.645 34.2344ZM161.629 30.8125V30.5664C161.629 29.5977 161.738 28.7188 161.957 27.9297C162.176 27.1328 162.496 26.4492 162.918 25.8789C163.34 25.3086 163.859 24.8672 164.477 24.5547C165.094 24.2422 165.797 24.0859 166.586 24.0859C167.328 24.0859 167.977 24.2422 168.531 24.5547C169.094 24.8672 169.57 25.3125 169.961 25.8906C170.359 26.4609 170.68 27.1367 170.922 27.918C171.164 28.6914 171.34 29.5391 171.449 30.4609V31C171.34 31.8828 171.164 32.7031 170.922 33.4609C170.68 34.2188 170.359 34.8828 169.961 35.4531C169.57 36.0156 169.094 36.4531 168.531 36.7656C167.969 37.0781 167.312 37.2344 166.562 37.2344C165.773 37.2344 165.07 37.0742 164.453 36.7539C163.844 36.4336 163.328 35.9844 162.906 35.4062C162.492 34.8281 162.176 34.1484 161.957 33.3672C161.738 32.5859 161.629 31.7344 161.629 30.8125ZM165.004 30.5664V30.8125C165.004 31.3359 165.043 31.8242 165.121 32.2773C165.207 32.7305 165.344 33.1328 165.531 33.4844C165.727 33.8281 165.977 34.0977 166.281 34.293C166.594 34.4805 166.973 34.5742 167.418 34.5742C167.996 34.5742 168.473 34.4453 168.848 34.1875C169.223 33.9219 169.508 33.5586 169.703 33.0977C169.906 32.6367 170.023 32.1055 170.055 31.5039V29.9688C170.031 29.4766 169.961 29.0352 169.844 28.6445C169.734 28.2461 169.57 27.9062 169.352 27.625C169.141 27.3438 168.875 27.125 168.555 26.9688C168.242 26.8125 167.871 26.7344 167.441 26.7344C167.004 26.7344 166.629 26.8359 166.316 27.0391C166.004 27.2344 165.75 27.5039 165.555 27.8477C165.367 28.1914 165.227 28.5977 165.133 29.0664C165.047 29.5273 165.004 30.0273 165.004 30.5664Z" fill="#FED501"/>
</svg>
