<svg width="49" height="55" viewBox="0 0 49 55" fill="none" xmlns="http://www.w3.org/2000/svg">
<path d="M41.2072 4.12049C38.6045 1.25406 33.7709 0 27.7289 0H9.97474C8.76634 0 7.65089 0.895759 7.46498 2.06025L0.0286783 47.2065C-0.157229 48.1023 0.586401 48.9085 1.51594 48.9085H12.4845L15.2731 32.0682L15.1801 32.6056C15.3661 31.4412 16.3885 30.5454 17.6899 30.5454H22.8953C33.1202 30.5454 41.1143 26.5145 43.4381 14.9592C43.5311 14.6009 43.5311 14.2426 43.624 13.9738C43.3452 13.7947 43.3452 13.7947 43.624 13.9738C44.2747 9.6742 43.624 6.80777 41.2072 4.12049Z" fill="#FED501"/>
<path d="M43.6237 13.9741C43.5308 14.3324 43.5308 14.6012 43.4378 14.9595C41.114 26.5148 33.1199 30.5457 22.895 30.5457H17.6896C16.4812 30.5457 15.3658 31.4415 15.1799 32.6059L11.7406 53.4772C11.6476 54.2833 12.2053 55 13.0419 55H22.2443C23.3598 55 24.2893 54.1938 24.4752 53.2084L24.5682 52.7606L26.3343 42.1906L26.4273 41.5635C26.6132 40.4886 27.5427 39.772 28.6582 39.772H30.0525C38.976 39.772 45.9476 36.2786 47.9925 26.1565C48.8291 21.9464 48.3644 18.3633 46.1335 15.9448C45.3898 15.1386 44.5533 14.5116 43.6237 13.9741Z" fill="#A0CED2"/>
<path d="M41.1138 13.0784C40.742 12.9888 40.3702 12.8992 39.9983 12.8097C39.6265 12.7201 39.2547 12.6305 38.7899 12.6305C37.3956 12.3618 35.8154 12.2722 34.2352 12.2722H20.3851C20.0133 12.2722 19.7344 12.3618 19.4556 12.4514C18.8049 12.7201 18.3401 13.3471 18.2472 14.0637L15.2726 32.0683L15.1797 32.6058C15.3656 31.4413 16.3881 30.5455 17.6894 30.5455H22.8948C33.1198 30.5455 41.1138 26.5146 43.4376 14.9595C43.5306 14.6012 43.5306 14.2429 43.6235 13.9741C43.0658 13.7054 42.4151 13.4367 41.6715 13.168C41.4856 13.168 41.2997 13.0784 41.1138 13.0784Z" fill="#FED501"/>
<path d="M27.6343 0H9.97313C8.76473 0 7.64928 0.895765 7.46337 2.06026L3.1875 27.8583L31.8173 0.26873C30.5159 0.0895766 29.1216 0 27.6343 0Z" fill="#FED501"/>
<path d="M46.9659 17.1989C46.687 16.751 46.5011 16.3031 46.1293 15.8552C45.4786 15.1386 44.5491 14.5116 43.6195 13.9741C43.5266 14.3324 43.5266 14.6012 43.4336 14.9595C41.1098 26.5148 33.1158 30.5457 22.8909 30.5457H17.6854C16.477 30.5457 15.3616 31.4415 15.1757 32.606L12.2012 50.7004L46.9659 17.1989Z" fill="#A0CED2"/>
<path d="M1.51367 48.9089H12.4822L15.1779 32.6062C15.1779 32.3374 15.2708 32.1583 15.3638 31.9791L0.119363 46.6695L0.0264095 47.2069C-0.0665442 48.1027 0.584132 48.9089 1.51367 48.9089Z" fill="#FED501"/>
<path d="M24.2871 0H9.9722C9.60039 0 9.32153 0.0895767 9.04266 0.179153L7.64835 1.5228C7.5554 1.70196 7.46245 1.88111 7.46245 2.06026L4.67383 18.9007L24.2871 0Z" fill="#FED501"/>
<path d="M47.9905 26.0667C48.2694 24.7231 48.3623 23.469 48.3623 22.215L30.2363 39.6822C39.0669 39.5926 45.9455 36.0992 47.9905 26.0667Z" fill="#A0CED2"/>
<path d="M24.5656 52.7604L26.0529 43.8029L14.4336 54.9998H22.3347C23.4501 54.9998 24.3797 54.1936 24.5656 53.2083V52.7604Z" fill="#A0CED2"/>
<g opacity="0.6">
<g opacity="0.6">
<path opacity="0.6" d="M43.0625 16.3924L48.3609 21.4984C48.3609 20.8714 48.175 20.2443 48.082 19.6173L43.4343 15.1383C43.2484 15.5862 43.1555 15.9445 43.0625 16.3924Z" fill="#33E2FF"/>
</g>
<g opacity="0.6">
<path opacity="0.6" d="M41.7628 20.1549C41.5769 20.5132 41.391 20.8715 41.2051 21.2298L47.6189 27.4106C47.7119 26.9627 47.8048 26.5148 47.8978 26.0669L41.7628 20.1549Z" fill="#33E2FF"/>
</g>
<g opacity="0.6">
<path opacity="0.6" d="M45.7602 32.1582C45.9461 31.7999 46.132 31.4416 46.3179 31.0833L39.2534 24.2754C38.9745 24.5441 38.7886 24.9024 38.5098 25.1712L45.7602 32.1582Z" fill="#33E2FF"/>
</g>
<g opacity="0.6">
<path opacity="0.6" d="M34.6074 28.0378L42.6944 35.8305C42.9733 35.5618 43.2521 35.2931 43.531 35.0244L35.6299 27.4108C35.2581 27.5899 34.9792 27.7691 34.6074 28.0378Z" fill="#33E2FF"/>
</g>
<g opacity="0.6">
<path opacity="0.6" d="M29.6797 29.8291L38.5103 38.3388C38.8822 38.1597 39.254 37.9805 39.6258 37.8014L30.981 29.4708C30.5163 29.5604 30.1445 29.7396 29.6797 29.8291Z" fill="#33E2FF"/>
</g>
<g opacity="0.6">
<path opacity="0.6" d="M32.9313 39.5931C33.3961 39.5035 33.9538 39.5035 34.4186 39.4139L25.1232 30.4563C24.5655 30.4563 24.1007 30.5459 23.543 30.5459L32.9313 39.5931Z" fill="#33E2FF"/>
</g>
<g opacity="0.6">
<path opacity="0.6" d="M18.4306 30.5458H17.687C17.4081 30.5458 17.1293 30.6353 16.9434 30.6353L26.9824 40.3988C27.2613 40.1301 27.6331 39.8613 28.0049 39.7718L18.4306 30.5458Z" fill="#33E2FF"/>
</g>
<g opacity="0.6">
<path opacity="0.6" d="M14.7129 35.2038L25.6815 45.7735L25.9603 44.3403L14.9918 33.7706L14.7129 35.2038Z" fill="#33E2FF"/>
</g>
<g opacity="0.6">
<path opacity="0.6" d="M13.7812 40.847L24.7498 51.4166L25.0286 50.073L14.0601 39.5034L13.7812 40.847Z" fill="#33E2FF"/>
</g>
<g opacity="0.6">
<path opacity="0.6" d="M13.1293 45.1466L12.9434 46.5798L21.681 54.9998H22.3317C22.6106 54.9998 22.8894 54.9102 23.1683 54.8206L13.1293 45.1466Z" fill="#33E2FF"/>
</g>
<g opacity="0.6">
<path opacity="0.6" d="M11.9238 52.2231L14.8054 55H16.4785L12.2027 50.8794L11.9238 52.2231Z" fill="#33E2FF"/>
</g>
</g>
</svg>
