<svg width="85" height="85" viewBox="0 0 85 85" fill="none" xmlns="http://www.w3.org/2000/svg">
<path d="M53.125 30.5469H50.4688V37.1875H53.125V30.5469Z" fill="#FED501"/>
<path d="M58.4375 30.5469H55.7812V37.1875H58.4375V30.5469Z" fill="#FED501"/>
<path d="M53.125 39.8438H50.4688V42.5H53.125V39.8438Z" fill="#FED501"/>
<path d="M58.4375 39.8438H55.7812V42.5H58.4375V39.8438Z" fill="#FED501"/>
<path d="M43.8281 45.1562H41.1719V47.8125H43.8281V45.1562Z" fill="#FED501"/>
<path d="M37.1875 71.7188H34.5312V74.375H37.1875V71.7188Z" fill="#FED501"/>
<path d="M58.4375 45.1562H55.7812V47.8125H58.4375V45.1562Z" fill="#FED501"/>
<path d="M53.125 50.4688H50.4688V53.125H53.125V50.4688Z" fill="#FED501"/>
<path d="M58.4375 50.4688H55.7812V53.125H58.4375V50.4688Z" fill="#FED501"/>
<path d="M2.65625 2.65625H6.64062V0H1.32812C0.595 0 0 0.595 0 1.32812V6.64062H2.65625V2.65625Z" fill="#FED501"/>
<path d="M83.6719 0H78.3594V2.65625H82.3438V6.64062H85V1.32812C85 0.595 84.405 0 83.6719 0Z" fill="#FED501"/>
<path d="M2.65625 78.3594H0V83.6719C0 84.405 0.595 85 1.32812 85H6.64062V82.3438H2.65625V78.3594Z" fill="#FED501"/>
<path d="M82.3438 82.3438H78.3594V85H83.6719C84.405 85 85 84.405 85 83.6719V78.3594H82.3438V82.3438Z" fill="#FED501"/>
<path d="M5.3125 6.64062V22.5781C5.3125 23.3113 5.9075 23.9062 6.64062 23.9062H22.5781C23.3113 23.9062 23.9062 23.3113 23.9062 22.5781V6.64062C23.9062 5.9075 23.3113 5.3125 22.5781 5.3125H6.64062C5.9075 5.3125 5.3125 5.9075 5.3125 6.64062ZM7.96875 7.96875H21.25V21.25H7.96875V7.96875Z" fill="#FED501"/>
<path d="M17.2656 10.625H11.9531C11.22 10.625 10.625 11.22 10.625 11.9531V17.2656C10.625 17.9988 11.22 18.5938 11.9531 18.5938H17.2656C17.9988 18.5938 18.5938 17.9988 18.5938 17.2656V11.9531C18.5938 11.22 17.9988 10.625 17.2656 10.625ZM15.9375 15.9375H13.2812V13.2812H15.9375V15.9375Z" fill="#FED501"/>
<path d="M62.4219 23.9062H78.3594C79.0925 23.9062 79.6875 23.3113 79.6875 22.5781V6.64062C79.6875 5.9075 79.0925 5.3125 78.3594 5.3125H62.4219C61.6888 5.3125 61.0938 5.9075 61.0938 6.64062V22.5781C61.0938 23.3113 61.6888 23.9062 62.4219 23.9062ZM63.75 7.96875H77.0312V21.25H63.75V7.96875Z" fill="#FED501"/>
<path d="M73.0469 10.625H67.7344C67.0013 10.625 66.4062 11.22 66.4062 11.9531V17.2656C66.4062 17.9988 67.0013 18.5938 67.7344 18.5938H73.0469C73.78 18.5938 74.375 17.9988 74.375 17.2656V11.9531C74.375 11.22 73.78 10.625 73.0469 10.625ZM71.7188 15.9375H69.0625V13.2812H71.7188V15.9375Z" fill="#FED501"/>
<path d="M22.5781 61.0938H6.64062C5.9075 61.0938 5.3125 61.6888 5.3125 62.4219V78.3594C5.3125 79.0925 5.9075 79.6875 6.64062 79.6875H22.5781C23.3113 79.6875 23.9062 79.0925 23.9062 78.3594V62.4219C23.9062 61.6888 23.3113 61.0938 22.5781 61.0938ZM21.25 77.0312H7.96875V63.75H21.25V77.0312Z" fill="#FED501"/>
<path d="M11.9531 74.375H17.2656C17.9988 74.375 18.5938 73.78 18.5938 73.0469V67.7344C18.5938 67.0013 17.9988 66.4062 17.2656 66.4062H11.9531C11.22 66.4062 10.625 67.0013 10.625 67.7344V73.0469C10.625 73.78 11.22 74.375 11.9531 74.375ZM13.2812 69.0625H15.9375V71.7188H13.2812V69.0625Z" fill="#FED501"/>
<path d="M58.4375 25.2344H49.1406V9.29688H46.4844V26.5625C46.4844 27.2956 47.0794 27.8906 47.8125 27.8906H58.4375V25.2344Z" fill="#FED501"/>
<path d="M38.5156 15.9375H29.2188V18.5938H38.5156V15.9375Z" fill="#FED501"/>
<path d="M43.8281 10.625H34.5312V13.2812H43.8281V10.625Z" fill="#FED501"/>
<path d="M7.96875 25.2344H5.3125V37.1875H7.96875V25.2344Z" fill="#FED501"/>
<path d="M23.9062 33.2031H10.625V35.8594H22.5781V41.1719H25.2344V34.5312C25.2344 33.7981 24.6394 33.2031 23.9062 33.2031Z" fill="#FED501"/>
<path d="M14.6094 26.5625H11.9531V29.2188H14.6094V26.5625Z" fill="#FED501"/>
<path d="M30.5469 23.9062H27.8906V34.5312H30.5469V23.9062Z" fill="#FED501"/>
<path d="M39.8438 37.1875H27.8906V39.8438H39.8438V37.1875Z" fill="#FED501"/>
<path d="M81.0156 38.5156H78.3594V51.7969H74.375V54.4531H79.6875C80.4206 54.4531 81.0156 53.8581 81.0156 53.125V38.5156Z" fill="#FED501"/>
<path d="M37.1875 23.9062H34.5312V26.5625H37.1875V23.9062Z" fill="#FED501"/>
<path d="M7.96875 43.8281H5.3125V54.4531H7.96875V43.8281Z" fill="#FED501"/>
<path d="M17.2656 55.7812H5.3125V58.4375H17.2656V55.7812Z" fill="#FED501"/>
<path d="M66.4062 37.1875H69.0625V31.875C69.0625 31.1419 68.4675 30.5469 67.7344 30.5469H61.0938V33.2031H66.4062V37.1875Z" fill="#FED501"/>
<path d="M14.6094 43.8281H11.9531V46.4844H14.6094V43.8281Z" fill="#FED501"/>
<path d="M29.2188 42.5H26.5625V53.125H29.2188V42.5Z" fill="#FED501"/>
<path d="M38.5156 55.7812H26.5625V58.4375H38.5156V55.7812Z" fill="#FED501"/>
<path d="M22.5781 50.4688H10.625V53.125H22.5781V50.4688Z" fill="#FED501"/>
<path d="M30.5469 69.0625H27.8906V74.375H30.5469V69.0625Z" fill="#FED501"/>
<path d="M38.5156 63.75H26.5625V66.4062H38.5156V63.75Z" fill="#FED501"/>
<path d="M47.8125 58.4375V51.7969C47.8125 51.0638 47.2175 50.4688 46.4844 50.4688H33.2031V53.125H45.1562V58.4375H47.8125Z" fill="#FED501"/>
<path d="M37.1875 42.5H34.5312V45.1562H37.1875V42.5Z" fill="#FED501"/>
<path d="M22.5781 45.1562H19.9219V47.8125H22.5781V45.1562Z" fill="#FED501"/>
<path d="M81.0156 70.3906H78.3594V79.6875H81.0156V70.3906Z" fill="#FED501"/>
<path d="M75.7031 77.0312H71.7188V79.6875H75.7031V77.0312Z" fill="#FED501"/>
<path d="M74.375 69.0625H71.7188V74.375H74.375V69.0625Z" fill="#FED501"/>
<path d="M81.0156 58.4375C81.0156 57.7044 80.4206 57.1094 79.6875 57.1094H65.0781V59.7656H78.3594V67.7344H81.0156V58.4375Z" fill="#FED501"/>
<path d="M63.75 74.375V67.7344C63.75 67.0013 63.155 66.4062 62.4219 66.4062H47.8125V69.0625H61.0938V74.375H63.75Z" fill="#FED501"/>
<path d="M75.7031 62.4219H66.4062V65.0781H75.7031V62.4219Z" fill="#FED501"/>
<path d="M35.8594 77.0312H26.5625V79.6875H35.8594V77.0312Z" fill="#FED501"/>
<path d="M42.5 67.7344H39.8438V79.6875H42.5V67.7344Z" fill="#FED501"/>
<path d="M47.8125 61.0938H42.5V63.75H47.8125V61.0938Z" fill="#FED501"/>
<path d="M62.4219 47.8125H69.0625V45.1562H63.75V37.1875H61.0938V46.4844C61.0938 47.2175 61.6888 47.8125 62.4219 47.8125Z" fill="#FED501"/>
<path d="M73.0469 39.8438H66.4062V42.5H73.0469V39.8438Z" fill="#FED501"/>
<path d="M75.7031 26.5625H71.7188V29.2188H75.7031V26.5625Z" fill="#FED501"/>
<path d="M81.0156 26.5625H78.3594V33.2031H81.0156V26.5625Z" fill="#FED501"/>
<path d="M74.375 33.2031H71.7188V35.8594H74.375V33.2031Z" fill="#FED501"/>
<path d="M51.7969 22.5781H57.1094C57.8425 22.5781 58.4375 21.9831 58.4375 21.25V3.98438H55.7812V19.9219H51.7969V22.5781Z" fill="#FED501"/>
<path d="M31.875 6.64062H51.7969V3.98438H30.5469C29.8138 3.98438 29.2188 4.57938 29.2188 5.3125V11.9531H31.875V6.64062Z" fill="#FED501"/>
<path d="M33.2031 31.875H42.5C43.2331 31.875 43.8281 31.28 43.8281 30.5469V19.9219H41.1719V29.2188H33.2031V31.875Z" fill="#FED501"/>
<path d="M47.8125 30.5469H45.1562V35.8594H47.8125V30.5469Z" fill="#FED501"/>
<path d="M57.1094 71.7188H47.8125V74.375H57.1094V71.7188Z" fill="#FED501"/>
<path d="M59.7656 77.0312H47.8125V79.6875H59.7656V77.0312Z" fill="#FED501"/>
<path d="M66.4062 77.0312H63.75V79.6875H67.7344C68.4675 79.6875 69.0625 79.0925 69.0625 78.3594V67.7344H66.4062V77.0312Z" fill="#FED501"/>
<path d="M23.9062 55.7812H21.25V58.4375H23.9062V55.7812Z" fill="#FED501"/>
<path d="M57.1094 55.7812H51.7969V58.4375H57.1094V55.7812Z" fill="#FED501"/>
<path d="M63.75 50.4688H61.0938V54.4531H63.75V50.4688Z" fill="#FED501"/>
<path d="M62.4219 57.1094H59.7656V59.7656H62.4219V57.1094Z" fill="#FED501"/>
<path d="M55.7812 61.0938H51.7969V63.75H55.7812V61.0938Z" fill="#FED501"/>
<path d="M69.0625 50.4688H66.4062V53.125H69.0625V50.4688Z" fill="#FED501"/>
<path d="M75.7031 45.1562H71.7188V47.8125H75.7031V45.1562Z" fill="#FED501"/>
<path d="M53.125 45.1562H46.4844V47.8125H53.125V45.1562Z" fill="#FED501"/>
<path d="M47.8125 38.5156H45.1562V42.5H47.8125V38.5156Z" fill="#FED501"/>
</svg>
