<svg width="118" height="42" viewBox="0 0 118 42" fill="none" xmlns="http://www.w3.org/2000/svg">
<path d="M48.2852 39.215V15.1276C48.2852 12.9996 49.1223 10.9587 50.6124 9.45395C52.1025 7.94921 54.1235 7.10385 56.2308 7.10385L63.2728 7.11377C65.3746 7.11804 67.3889 7.96428 68.8735 9.46673C70.3581 10.9692 71.1918 13.0051 71.1915 15.1276V20.2536C71.1915 22.3817 70.3544 24.4227 68.8643 25.9277C67.3742 27.4326 65.3532 28.2782 63.2458 28.2786H53.2925" stroke="#FED501" stroke-linecap="round" stroke-linejoin="round"/>
<path d="M73.1572 7.10258H76.2122C77.0771 7.10258 77.9066 7.44956 78.5182 8.06717C79.1298 8.68478 79.4734 9.52245 79.4734 10.3959V28.3875" stroke="#FED501" stroke-linecap="round" stroke-linejoin="round"/>
<path d="M78.8206 4.31507L77.4355 2.91519C77.3538 2.83274 77.289 2.73484 77.2447 2.62708C77.2005 2.51932 77.1777 2.40381 77.1777 2.28717C77.1777 2.17052 77.2005 2.05501 77.2447 1.94725C77.289 1.83949 77.3538 1.74159 77.4355 1.65914L78.8206 0.260502C78.9859 0.0936984 79.21 0 79.4437 0C79.6774 0 79.9016 0.0936984 80.0669 0.260502L81.4507 1.65914C81.5325 1.74159 81.5973 1.83949 81.6415 1.94725C81.6857 2.05501 81.7085 2.17052 81.7085 2.28717C81.7085 2.40381 81.6857 2.51932 81.6415 2.62708C81.5973 2.73484 81.5325 2.83274 81.4507 2.91519L80.0608 4.31507C79.979 4.39762 79.882 4.46311 79.7751 4.50779C79.6683 4.55247 79.5538 4.57547 79.4382 4.57547C79.3226 4.57547 79.2081 4.55247 79.1013 4.50779C78.9945 4.46311 78.8974 4.39762 78.8157 4.31507" fill="#FED501"/>
<path d="M85.3428 7.08652H88.372C89.9302 7.08586 91.4248 7.71029 92.5271 8.82245L99.6133 15.9782C99.8314 16.1988 100.09 16.3737 100.376 16.4931C100.661 16.6125 100.967 16.674 101.275 16.674C101.584 16.674 101.89 16.6125 102.175 16.4931C102.46 16.3737 102.719 16.1988 102.937 15.9782L109.997 8.84973C110.543 8.29897 111.191 7.86218 111.903 7.56432C112.616 7.26646 113.38 7.11337 114.151 7.1138H116.615" stroke="#FED501" stroke-linecap="round" stroke-linejoin="round"/>
<path d="M85.3428 28.2302H88.372C89.9301 28.2307 91.4248 27.6063 92.5271 26.4942L99.6133 19.3384C100.054 18.8936 100.652 18.6437 101.275 18.6437C101.898 18.6437 102.496 18.8936 102.937 19.3384L109.997 26.4682C111.099 27.5802 112.594 28.2046 114.151 28.2042H116.615" stroke="#FED501" stroke-linecap="round" stroke-linejoin="round"/>
<path d="M30.2249 32.8006C29.4775 32.8033 28.7369 32.6565 28.0461 32.3685C27.3552 32.0806 26.7277 31.6572 26.1998 31.1229L20.3858 25.2481C20.1801 25.0495 19.9066 24.9387 19.622 24.9387C19.3375 24.9387 19.0639 25.0495 18.8583 25.2481L13.0246 31.1391C12.497 31.6741 11.8697 32.0983 11.1788 32.3871C10.488 32.6759 9.74729 32.8236 8.99958 32.8216H7.86133L15.2287 40.2613C16.3336 41.3747 17.8308 42 19.3918 42C20.9528 42 22.45 41.3747 23.555 40.2613L30.937 32.8055L30.2249 32.8006Z" fill="#FED501"/>
<path d="M9.00081 12.0387C9.74854 12.0367 10.4892 12.1844 11.1801 12.4732C11.871 12.762 12.4983 13.1862 13.0258 13.7213L18.8595 19.6136C19.0623 19.8177 19.337 19.9324 19.6233 19.9324C19.9096 19.9324 20.1843 19.8177 20.387 19.6136L26.1999 13.7436C26.727 13.2079 27.3542 12.7831 28.0452 12.4941C28.7361 12.205 29.477 12.0574 30.2249 12.0598H30.9248L23.5427 4.60517C22.9961 4.05295 22.3471 3.61489 21.6327 3.31603C20.9184 3.01716 20.1528 2.86333 19.3796 2.86333C18.6063 2.86333 17.8407 3.01716 17.1264 3.31603C16.4121 3.61489 15.763 4.05295 15.2164 4.60517L7.86133 12.0387H9.00081Z" fill="#FED501"/>
<path d="M37.031 18.2275L32.5701 13.7227C32.4695 13.7643 32.362 13.7861 32.2533 13.7872H30.2248C29.1692 13.7899 28.1574 14.2132 27.4093 14.9652L21.5964 20.8314C21.0729 21.3591 20.3635 21.6554 19.6238 21.6554C18.8842 21.6554 18.1747 21.3591 17.6512 20.8314L11.8163 14.9429C11.0684 14.1904 10.0565 13.7667 9.00076 13.7637H6.5106C6.40798 13.7613 6.30656 13.7408 6.211 13.7029L1.72184 18.2275C0.619238 19.3433 0 20.8552 0 22.4316C0 24.0079 0.619238 25.5198 1.72184 26.6356L6.20118 31.159C6.29653 31.1204 6.39808 31.0998 6.50078 31.0982H9.00076C10.0565 31.0951 11.0683 30.6713 11.8163 29.919L17.65 24.028C18.7048 22.9641 20.5429 22.9641 21.5964 24.028L27.4093 29.8967C28.1574 30.6487 29.1692 31.072 30.2248 31.0747H32.2533C32.362 31.0754 32.4695 31.0973 32.5701 31.1391L37.031 26.6344C37.5778 26.0824 38.0116 25.427 38.3076 24.7056C38.6035 23.9843 38.7559 23.2111 38.7559 22.4303C38.7559 21.6495 38.6035 20.8763 38.3076 20.155C38.0116 19.4337 37.5778 18.7783 37.031 18.2262" fill="#FED501"/>
<path d="M54.343 37.1676C53.9743 37.1839 53.6083 37.24 53.2514 37.335V38.803C53.5244 38.8997 53.8118 38.9484 54.1011 38.9469C54.8305 38.9469 55.1755 38.6989 55.1755 38.0504C55.1755 37.4404 54.8931 37.1676 54.343 37.1676ZM53.0059 39.8954V36.9903H53.206L53.2269 37.1143C53.5988 37.0145 53.9797 36.9526 54.3639 36.9295C54.6301 36.9107 54.8943 36.988 55.1092 37.1478C55.3548 37.3536 55.4383 37.6859 55.4383 38.0479C55.4383 38.41 55.3155 38.7844 54.9717 38.9816C54.7093 39.1138 54.4188 39.1789 54.1257 39.1713C53.8293 39.1694 53.5348 39.1239 53.2514 39.0362V39.8905L53.0059 39.8954Z" fill="#FED501"/>
<path d="M57.2655 37.1591C56.5374 37.1591 56.212 37.3897 56.212 38.0382C56.212 38.6644 56.5325 38.9471 57.2655 38.9471C57.9986 38.9471 58.3154 38.719 58.3154 38.0717C58.3154 37.4455 57.9949 37.1591 57.2655 37.1591ZM58.2036 38.9471C57.9581 39.1232 57.6364 39.174 57.2655 39.174C56.8947 39.174 56.5619 39.1195 56.325 38.9471C56.0585 38.7574 55.9492 38.4511 55.9492 38.0556C55.9492 37.66 56.0585 37.3525 56.325 37.1591C56.5619 36.9867 56.8873 36.9322 57.2655 36.9322C57.6437 36.9322 57.9617 36.9867 58.2036 37.1591C58.4738 37.3525 58.5782 37.6675 58.5782 38.0506C58.5782 38.4338 58.4701 38.7574 58.2036 38.9471Z" fill="#FED501"/>
<path d="M61.656 39.1143L60.8432 37.3524H60.8272L60.0266 39.1143H59.8019L58.9424 36.9904H59.2125L59.9333 38.7734H59.9505L60.7339 36.9904H60.9586L61.7616 38.7734H61.7788L62.4824 36.9904H62.7488L61.882 39.1143H61.656Z" fill="#FED501"/>
<path d="M64.3145 37.1539C63.6391 37.1539 63.4107 37.4577 63.369 37.8979H65.26C65.2391 37.4143 64.9935 37.1539 64.3145 37.1539ZM64.3059 39.1739C63.9019 39.1739 63.6391 39.1144 63.4304 38.9383C63.1848 38.7238 63.1025 38.4126 63.1025 38.0554C63.1025 37.6983 63.2143 37.3523 63.4942 37.1464C63.7391 36.9909 64.0257 36.916 64.3145 36.9319C64.609 36.914 64.902 36.9857 65.1556 37.1378C65.4589 37.3436 65.5179 37.7057 65.5179 38.1174H63.3629C63.3715 38.5552 63.5127 38.9421 64.3292 38.9421C64.6943 38.9323 65.0579 38.8908 65.4159 38.818V39.0413C65.052 39.1168 64.6822 39.1604 64.3108 39.1715" fill="#FED501"/>
<path d="M66.2256 39.1144V36.9904H66.4245L66.4454 37.1144C66.8911 37.0003 67.0998 36.9296 67.4915 36.9296H67.521V37.1652H67.4621C67.133 37.1652 66.9329 37.2111 66.4712 37.3326V39.112L66.2256 39.1144Z" fill="#FED501"/>
<path d="M68.9433 37.1539C68.2692 37.1539 68.0396 37.4577 67.9979 37.8979H69.8888C69.8679 37.4143 69.6223 37.1539 68.9433 37.1539ZM68.9347 39.1739C68.5308 39.1739 68.2692 39.1144 68.0605 38.9383C67.8149 38.7238 67.7314 38.4126 67.7314 38.0554C67.7314 37.6983 67.8444 37.3523 68.1231 37.1464C68.3681 36.9912 68.6546 36.9163 68.9433 36.9319C69.2378 36.914 69.5308 36.9857 69.7844 37.1378C70.0889 37.3436 70.1527 37.7057 70.1527 38.1174H67.9893C67.9979 38.5552 68.1391 38.9421 68.9556 38.9421C69.3211 38.9324 69.685 38.8909 70.0435 38.818V39.0413C69.6795 39.1168 69.3098 39.1603 68.9384 39.1715" fill="#FED501"/>
<path d="M72.8382 37.3016C72.5652 37.2054 72.2778 37.1572 71.9885 37.159C71.2592 37.159 70.9141 37.407 70.9141 38.0555C70.9141 38.6693 71.1978 38.9384 71.7466 38.9384C72.1151 38.9211 72.4809 38.8658 72.8382 38.7734V37.3016ZM72.8849 39.1144L72.8628 38.9904C72.491 39.0913 72.1101 39.1537 71.7258 39.1764C71.4592 39.1967 71.1944 39.1187 70.9804 38.957C70.7349 38.7511 70.6514 38.4188 70.6514 38.058C70.6514 37.6786 70.7742 37.3215 71.118 37.128C71.3807 36.9928 71.6729 36.9263 71.9677 36.9346C72.2626 36.9387 72.5555 36.9838 72.8382 37.0685V36.0952H73.0838V39.1144H72.8849Z" fill="#FED501"/>
<path d="M76.6917 37.1677C76.3229 37.184 75.957 37.2402 75.6001 37.3351V38.7995C75.8725 38.8989 76.1601 38.9488 76.4498 38.947C77.1791 38.947 77.5242 38.6991 77.5242 38.0506C77.5242 37.4405 77.2418 37.1677 76.6917 37.1677ZM77.3203 38.9842C77.0584 39.1163 76.7683 39.1815 76.4756 39.174C76.1552 39.1719 75.8372 39.1179 75.5338 39.014L75.5215 39.1144H75.3545V36.0952H75.6001V37.1082C75.9645 37.0141 76.337 36.9551 76.7125 36.9321C76.9788 36.9133 77.2429 36.9906 77.4579 37.1504C77.7034 37.3562 77.7869 37.6885 77.7869 38.0506C77.7869 38.4126 77.6642 38.7871 77.3203 38.9842Z" fill="#FED501"/>
<path d="M78.1148 39.9266V39.6959C78.2376 39.7083 78.3481 39.717 78.4267 39.717C78.7312 39.717 78.9179 39.6277 79.0848 39.2793L79.1647 39.1106L78.0596 36.9866H78.3444L79.2862 38.8205H79.3022L80.1973 36.9866H80.4772L79.2936 39.3723C79.0775 39.805 78.8442 39.9476 78.4144 39.9476C78.313 39.9471 78.2117 39.9401 78.1111 39.9266" fill="#FED501"/>
<path d="M83.8655 37.9029H83.0502V38.6469H83.8655C84.4279 38.6469 84.6403 38.5837 84.6403 38.2749C84.6403 37.9426 84.3481 37.9029 83.8606 37.9029H83.8655ZM83.7132 36.7027H83.0477V37.459H83.7181C84.2719 37.459 84.493 37.3921 84.493 37.0771C84.493 36.7398 84.213 36.7051 83.7132 36.7051V36.7027ZM84.9805 38.9222C84.6796 39.1156 84.3174 39.123 83.6555 39.123H82.4092V36.2339H83.6261C84.197 36.2339 84.547 36.2414 84.838 36.4187C84.9347 36.4769 85.0134 36.5613 85.065 36.6624C85.1167 36.7634 85.1393 36.877 85.1303 36.9903C85.1303 37.2929 85.0075 37.495 84.6796 37.6301V37.6463C85.048 37.7306 85.2838 37.9203 85.2838 38.3282C85.293 38.4447 85.2694 38.5615 85.2157 38.665C85.1621 38.7686 85.0805 38.8547 84.9805 38.9135" fill="#FED501"/>
<path d="M87.7768 38.2229C87.5312 38.2019 87.2856 38.1895 87.0191 38.1895C86.5906 38.1895 86.4396 38.2775 86.4396 38.4759C86.4396 38.6742 86.5624 38.761 86.8939 38.761C87.1917 38.7511 87.4876 38.7096 87.7768 38.637V38.2229ZM87.8995 39.1144L87.8836 38.9904C87.5112 39.0964 87.1281 39.1588 86.7416 39.1764C86.5184 39.1916 86.2959 39.137 86.1043 39.0202C86.0221 38.9504 85.9582 38.8611 85.9184 38.7603C85.8786 38.6595 85.8641 38.5504 85.8763 38.4426C85.8884 38.3348 85.9268 38.2317 85.988 38.1425C86.0493 38.0533 86.1314 37.9809 86.2271 37.9316C86.4482 37.8262 86.7441 37.8175 87.0155 37.8175C87.2352 37.8175 87.5312 37.8299 87.7768 37.8473V37.8088C87.7768 37.4765 87.5606 37.3674 86.9688 37.3674C86.7404 37.3674 86.4604 37.3798 86.194 37.4046V36.9756C86.4899 36.9508 86.8239 36.9347 87.0989 36.9347C87.4673 36.9347 87.8443 36.9632 88.0813 37.1319C88.3183 37.3005 88.3686 37.5447 88.3686 37.8597V39.1169L87.8995 39.1144Z" fill="#FED501"/>
<path d="M91.1147 39.1145V37.9427C91.1147 37.5558 90.9194 37.417 90.5695 37.417C90.279 37.43 89.9908 37.4749 89.71 37.5509V39.1157H89.123V36.9904H89.6019L89.6228 37.1256C89.9889 37.0167 90.3664 36.9518 90.7475 36.9321C91.0064 36.9112 91.2636 36.9891 91.4683 37.1504C91.6341 37.3016 91.6967 37.5124 91.6967 37.815V39.1145H91.1147Z" fill="#FED501"/>
<path d="M93.3525 39.174C93.0811 39.174 92.7852 39.1356 92.5691 38.9508C92.3112 38.74 92.2363 38.409 92.2363 38.0506C92.2363 37.7146 92.3444 37.3476 92.6649 37.1417C92.9277 36.9694 93.2518 36.9322 93.5895 36.9322C93.8351 36.9322 94.0684 36.9483 94.3263 36.9731V37.4282C94.1138 37.4071 93.8597 37.391 93.6558 37.391C93.0971 37.391 92.8343 37.567 92.8343 38.0556C92.8343 38.5131 93.0308 38.7115 93.4888 38.7115C93.7857 38.7017 94.0812 38.6652 94.3717 38.6024V39.0389C94.0356 39.1179 93.6925 39.1632 93.3476 39.174" fill="#FED501"/>
<path d="M96.1115 37.3773C95.5528 37.3773 95.3072 37.5546 95.3072 38.0382C95.3072 38.5218 95.5528 38.7276 96.1115 38.7276C96.6701 38.7276 96.9071 38.5553 96.9071 38.0717C96.9071 37.5881 96.6701 37.3773 96.1115 37.3773ZM97.1195 38.9508C96.8617 39.1269 96.524 39.174 96.1115 39.174C95.6989 39.174 95.3539 39.1232 95.0997 38.9508C94.8075 38.7574 94.7031 38.4375 94.7031 38.0556C94.7031 37.6737 94.8075 37.3476 95.0997 37.1541C95.3539 36.9818 95.6903 36.9322 96.1115 36.9322C96.5326 36.9322 96.8617 36.9818 97.1195 37.1541C97.4105 37.3476 97.5112 37.6724 97.5112 38.0506C97.5112 38.4288 97.4069 38.7574 97.1195 38.9508Z" fill="#FED501"/>
<path d="M100.904 39.174C100.551 39.174 100.168 39.1144 99.8803 38.8751C99.5389 38.5887 99.4346 38.1473 99.4346 37.6724C99.4346 37.247 99.5684 36.7424 100.013 36.4485C100.359 36.2216 100.788 36.1745 101.221 36.1745C101.538 36.1745 101.863 36.1955 102.217 36.2253V36.7424C101.914 36.7176 101.538 36.6965 101.247 36.6965C100.434 36.6965 100.089 37.0077 100.089 37.6724C100.089 38.337 100.41 38.6519 101.009 38.6519C101.437 38.637 101.863 38.5793 102.28 38.4796V38.9929C101.828 39.0983 101.368 39.1589 100.904 39.174Z" fill="#FED501"/>
<path d="M104.004 37.3103C103.513 37.3103 103.329 37.4876 103.291 37.8063H104.708C104.69 37.4616 104.49 37.3103 104.004 37.3103ZM103.916 39.1702C103.571 39.1702 103.257 39.1281 103.024 38.9346C102.791 38.7412 102.687 38.4089 102.687 38.0468C102.687 37.7232 102.791 37.3612 103.083 37.1504C103.341 36.9656 103.67 36.9284 104.004 36.9284C104.304 36.9284 104.657 36.9619 104.915 37.1429C105.253 37.3822 105.283 37.753 105.283 38.1894H103.287C103.299 38.5143 103.47 38.7238 104.062 38.7238C104.438 38.7156 104.812 38.6791 105.183 38.6147V39.0313C104.765 39.1115 104.341 39.1579 103.916 39.1702Z" fill="#FED501"/>
<path d="M107.902 39.1145V37.9427C107.902 37.5558 107.707 37.417 107.357 37.417C107.066 37.43 106.778 37.4749 106.497 37.5509V39.1157H105.91V36.9904H106.389L106.41 37.1256C106.776 37.0167 107.154 36.9518 107.535 36.9321C107.794 36.9112 108.051 36.9891 108.256 37.1504C108.421 37.3016 108.484 37.5124 108.484 37.815V39.1145H107.902Z" fill="#FED501"/>
<path d="M110.157 39.1739C109.873 39.1739 109.615 39.0933 109.474 38.8701C109.358 38.6772 109.304 38.4529 109.319 38.2278V37.4318H108.895V36.9904H109.319L109.382 36.3469H109.9V36.9904H110.729V37.4318H109.9V38.1138C109.892 38.2511 109.912 38.3885 109.958 38.518C110.021 38.6606 110.158 38.7151 110.342 38.7151C110.483 38.7125 110.624 38.6984 110.762 38.673V39.0983C110.562 39.142 110.359 39.1673 110.154 39.1739" fill="#FED501"/>
<path d="M111.303 39.1145V36.9903H111.782L111.803 37.1254C112.138 37.0103 112.489 36.9451 112.844 36.932C112.869 36.9305 112.894 36.9305 112.919 36.932V37.4466C112.852 37.4466 112.773 37.4466 112.715 37.4466C112.436 37.4478 112.159 37.4844 111.89 37.5558V39.1245L111.303 39.1145Z" fill="#FED501"/>
<path d="M115.055 38.2229C114.81 38.2019 114.564 38.1895 114.296 38.1895C113.868 38.1895 113.718 38.2775 113.718 38.4759C113.718 38.6742 113.841 38.761 114.171 38.761C114.469 38.7511 114.766 38.7096 115.055 38.637V38.2229ZM115.178 39.1144L115.161 38.9904C114.789 39.0964 114.405 39.1588 114.019 39.1764C113.796 39.1916 113.573 39.137 113.382 39.0202C113.304 38.9603 113.243 38.8822 113.202 38.7927C113.161 38.7033 113.143 38.6051 113.148 38.5069C113.143 38.3859 113.174 38.2661 113.237 38.1634C113.3 38.0606 113.393 37.9798 113.503 37.9316C113.724 37.8262 114.019 37.8175 114.29 37.8175C114.511 37.8175 114.807 37.8299 115.053 37.8473V37.8088C115.053 37.4765 114.836 37.3674 114.245 37.3674C114.015 37.3674 113.737 37.3798 113.47 37.4046V36.9756C113.766 36.9508 114.099 36.9347 114.374 36.9347C114.742 36.9347 115.119 36.9632 115.356 37.1319C115.593 37.3005 115.643 37.5447 115.643 37.8597V39.1169L115.178 39.1144Z" fill="#FED501"/>
<path d="M116.398 36.0952H116.986V39.1144H116.398V36.0952Z" fill="#FED501"/>
</svg>
