<svg width="180" height="240" viewBox="0 0 180 240" fill="none" xmlns="http://www.w3.org/2000/svg">
<path d="M90 120C101.867 120 113.467 116.481 123.334 109.888C133.201 103.295 140.892 93.9246 145.433 82.961C149.974 71.9975 151.162 59.9335 148.847 48.2946C146.532 36.6558 140.818 25.9648 132.426 17.5736C124.035 9.18247 113.344 3.46802 101.705 1.15291C90.0666 -1.1622 78.0026 0.0259972 67.039 4.56726C56.0754 9.10851 46.7047 16.7989 40.1118 26.6658C33.5189 36.5328 30 48.1331 30 60C30.0159 75.9081 36.3424 91.1602 47.5911 102.409C58.8399 113.658 74.0919 119.984 90 120ZM90 20C97.9113 20 105.645 22.346 112.223 26.7412C118.801 31.1365 123.928 37.3836 126.955 44.6927C129.983 52.0017 130.775 60.0444 129.231 67.8036C127.688 75.5629 123.878 82.6902 118.284 88.2843C112.69 93.8784 105.563 97.688 97.8036 99.2314C90.0444 100.775 82.0017 99.9827 74.6927 96.9552C67.3836 93.9277 61.1365 88.8008 56.7412 82.2228C52.346 75.6449 50 67.9113 50 60C50 49.3914 54.2143 39.2172 61.7157 31.7158C69.2172 24.2143 79.3913 20 90 20Z" fill="#FED501"/>
<path d="M90 140C66.1386 140.026 43.2622 149.517 26.3896 166.39C9.51708 183.262 0.0264685 206.139 0 230C0 232.652 1.05357 235.196 2.92893 237.071C4.8043 238.946 7.34784 240 10 240C12.6522 240 15.1957 238.946 17.0711 237.071C18.9464 235.196 20 232.652 20 230C20 211.435 27.375 193.63 40.5025 180.503C53.6301 167.375 71.4348 160 90 160C108.565 160 126.37 167.375 139.497 180.503C152.625 193.63 160 211.435 160 230C160 232.652 161.054 235.196 162.929 237.071C164.804 238.946 167.348 240 170 240C172.652 240 175.196 238.946 177.071 237.071C178.946 235.196 180 232.652 180 230C179.974 206.139 170.483 183.262 153.61 166.39C136.738 149.517 113.861 140.026 90 140Z" fill="#FED501"/>
</svg>
