<svg width="15" height="15" viewBox="0 0 15 15" fill="none" xmlns="http://www.w3.org/2000/svg">
<path d="M7.52344 13.125C4.42969 13.125 1.92188 10.6172 1.92188 7.52344C1.92188 4.42969 4.42969 1.92188 7.52344 1.92188C10.6172 1.92188 13.125 4.42969 13.125 7.52344C13.125 10.6172 10.6172 13.125 7.52344 13.125ZM7.52344 2.53124C4.78125 2.53124 2.53125 4.78125 2.53125 7.52344C2.53125 10.2656 4.78125 12.5156 7.52344 12.5156C10.2656 12.5156 12.5156 10.2656 12.5156 7.52344C12.5156 4.75781 10.2656 2.53124 7.52344 2.53124Z" fill="#FED501"/>
<path d="M5.78873 5.74219C5.88248 5.48438 5.99966 5.27343 6.16373 5.10937C6.32779 4.94531 6.53872 4.80469 6.7731 4.71094C7.00747 4.61719 7.28872 4.57031 7.59341 4.57031C7.82779 4.57031 8.06216 4.61719 8.2731 4.6875C8.48404 4.75781 8.67154 4.875 8.8356 4.99218C8.99966 5.10937 9.11685 5.29687 9.2106 5.48437C9.30435 5.67187 9.35122 5.90625 9.35122 6.16406C9.35122 6.49219 9.28091 6.75 9.14029 6.98438C8.99966 7.21875 8.81216 7.42969 8.60123 7.64063C8.41373 7.82813 8.2731 7.96875 8.17935 8.0625C8.06216 8.15625 7.99185 8.27344 7.94497 8.36719C7.8981 8.46094 7.85123 8.57812 7.85123 8.71875C7.82779 8.85937 7.82779 8.95313 7.82779 9.21094H7.28873C7.28873 8.95313 7.28873 8.83594 7.3356 8.67188C7.35904 8.48438 7.42935 8.34375 7.49966 8.17969C7.56998 8.03906 7.68716 7.89844 7.80435 7.75781C7.94498 7.61719 8.0856 7.47656 8.2731 7.3125C8.43716 7.17187 8.57779 7.00781 8.67154 6.82031C8.78873 6.63281 8.8356 6.42188 8.8356 6.21094C8.8356 6.04688 8.81216 5.88281 8.74185 5.74219C8.67154 5.60156 8.57779 5.48437 8.48404 5.36719C8.39029 5.25 8.24966 5.17969 8.0856 5.13281C7.94498 5.08594 7.78091 5.03906 7.61685 5.03906C7.38248 5.03906 7.17154 5.08594 7.00747 5.15625C6.81997 5.22656 6.67935 5.34375 6.56216 5.48437C6.44498 5.625 6.35122 5.78906 6.30435 5.97656C6.25747 6.16406 6.2106 6.32812 6.23404 6.53906H5.69498C5.67154 6.21094 5.69498 6 5.78873 5.74219ZM7.19498 9.84375H7.85123V10.5H7.19498V9.84375Z" fill="#FED501"/>
</svg>
