<svg width="232" height="232" viewBox="0 0 232 232" fill="none" xmlns="http://www.w3.org/2000/svg">
<path d="M116 0C93.0574 0 70.63 6.80328 51.5539 19.5495C32.4778 32.2958 17.6098 50.4125 8.83003 71.6087C0.0502612 92.805 -2.24693 116.129 2.22896 138.63C6.70485 161.132 17.7528 181.802 33.9757 198.024C50.1986 214.247 70.8678 225.295 93.3696 229.771C115.871 234.247 139.195 231.95 160.391 223.17C181.588 214.39 199.704 199.522 212.451 180.446C225.197 161.37 232 138.943 232 116C231.967 85.2451 219.735 55.7594 197.988 34.0124C176.241 12.2653 146.755 0.0332638 116 0V0ZM116 212.667C96.8812 212.667 78.1917 206.997 62.2949 196.375C46.3982 185.754 34.0082 170.656 26.6917 152.993C19.3752 135.329 17.4609 115.893 21.1908 97.1413C24.9207 78.3898 34.1273 61.1654 47.6464 47.6464C61.1655 34.1273 78.3898 24.9207 97.1413 21.1908C115.893 17.4609 135.329 19.3752 152.993 26.6916C170.656 34.0081 185.754 46.3981 196.375 62.2949C206.997 78.1916 212.667 96.8811 212.667 116C212.639 141.629 202.445 166.2 184.323 184.323C166.2 202.445 141.629 212.639 116 212.667ZM164.333 116C164.333 118.564 163.315 121.023 161.502 122.835C159.689 124.648 157.23 125.667 154.667 125.667H125.667V154.667C125.667 157.23 124.648 159.689 122.835 161.502C121.023 163.315 118.564 164.333 116 164.333C113.436 164.333 110.978 163.315 109.165 161.502C107.352 159.689 106.333 157.23 106.333 154.667V125.667H77.3334C74.7696 125.667 72.3109 124.648 70.498 122.835C68.6852 121.023 67.6667 118.564 67.6667 116C67.6667 113.436 68.6852 110.978 70.498 109.165C72.3109 107.352 74.7696 106.333 77.3334 106.333H106.333V77.3333C106.333 74.7696 107.352 72.3108 109.165 70.498C110.978 68.6851 113.436 67.6667 116 67.6667C118.564 67.6667 121.023 68.6851 122.835 70.498C124.648 72.3108 125.667 74.7696 125.667 77.3333V106.333H154.667C157.23 106.333 159.689 107.352 161.502 109.165C163.315 110.978 164.333 113.436 164.333 116Z" fill="#FED501"/>
</svg>
