<svg width="42" height="44" viewBox="0 0 42 44" fill="none" xmlns="http://www.w3.org/2000/svg">
<path d="M20.7419 43.1025C32.1892 43.1025 41.4691 33.4624 41.4691 21.5707C41.4691 9.67895 32.1892 0.038826 20.7419 0.038826C9.29453 0.038826 0.0146484 9.67895 0.0146484 21.5707C0.0146484 33.4624 9.29453 43.1025 20.7419 43.1025Z" fill="#FED501"/>
<path d="M33.7136 13.3562C32.7589 13.7908 31.7355 14.0802 30.6577 14.2121C31.7588 13.5419 32.6008 12.4774 32.9985 11.2084C31.9712 11.8301 30.8325 12.2823 29.62 12.5259C28.651 11.4708 27.2675 10.81 25.7388 10.81C22.7995 10.81 20.421 13.2418 20.421 16.2455C20.421 16.6694 20.4676 17.0866 20.5557 17.4876C16.1357 17.2561 12.2182 15.0922 9.59492 11.8059C9.13633 12.6093 8.87076 13.5419 8.87076 14.5391C8.87076 16.4231 9.81385 18.0864 11.2388 19.0648C10.3683 19.0338 9.54699 18.7903 8.8319 18.3825C8.83061 18.4054 8.8306 18.4269 8.8306 18.4511C8.8306 21.0861 10.6637 23.2837 13.0965 23.7843C12.6522 23.9054 12.1819 23.974 11.6948 23.974C11.3528 23.974 11.0212 23.9418 10.6961 23.8785C11.371 26.0357 13.3362 27.6075 15.6628 27.6546C13.8466 29.1107 11.5511 29.9828 9.05731 29.9828C8.62981 29.9828 8.20361 29.9572 7.78906 29.9047C10.1416 31.4469 12.9398 32.3459 15.9439 32.3459C25.7272 32.3459 31.0774 24.0615 31.0774 16.8766C31.0774 16.6438 31.0696 16.4043 31.0592 16.1755C32.0982 15.403 32.9998 14.4462 33.7136 13.3562Z" fill="#190642"/>
</svg>
