<svg width="17" height="16" viewBox="0 0 17 16" fill="none" xmlns="http://www.w3.org/2000/svg">
<path d="M16.0447 6.18673V1.64322C16.0447 1.20741 15.8922 0.789452 15.6208 0.481289C15.3493 0.173125 14.9812 0 14.5973 0L1.44742 0C1.06354 0 0.695386 0.173125 0.423941 0.481289C0.152496 0.789452 0 1.20741 0 1.64322L0 14.0085C0 14.4443 0.152496 14.8622 0.423941 15.1704C0.695386 15.4786 1.06354 15.6517 1.44742 15.6517H14.619C15.0029 15.6517 15.371 15.4786 15.6425 15.1704C15.9139 14.8622 16.0664 14.4443 16.0664 14.0085V11.1C16.3205 11.0753 16.5572 10.9436 16.73 10.7307C16.9028 10.5178 16.9991 10.2392 17 9.94971V7.3452C17.0005 7.05035 16.902 6.76636 16.7245 6.55111C16.547 6.33586 16.3039 6.20555 16.0447 6.18673ZM1.44742 0.821611H14.619C14.8109 0.821611 14.995 0.908173 15.1307 1.06226C15.2665 1.21634 15.3427 1.42532 15.3427 1.64322V1.90614C15.1236 1.7591 14.8735 1.68242 14.619 1.6843H1.44742C1.19294 1.68242 0.942782 1.7591 0.723712 1.90614V1.64322C0.723712 1.42532 0.79996 1.21634 0.935683 1.06226C1.0714 0.908173 1.25548 0.821611 1.44742 0.821611ZM14.619 14.789H1.44742C1.25548 14.789 1.0714 14.7024 0.935683 14.5484C0.79996 14.3943 0.723712 14.1853 0.723712 13.9674V3.28644C0.723712 3.06854 0.79996 2.85956 0.935683 2.70548C1.0714 2.5514 1.25548 2.46483 1.44742 2.46483H14.619C14.8109 2.46483 14.995 2.5514 15.1307 2.70548C15.2665 2.85956 15.3427 3.06854 15.3427 3.28644V6.17851H11.9123C11.3365 6.17851 10.7842 6.4382 10.3771 6.90045C9.96991 7.36269 9.74117 7.98963 9.74117 8.64335C9.74117 9.29706 9.96991 9.924 10.3771 10.3862C10.7842 10.8485 11.3365 11.1082 11.9123 11.1082H15.321V14.0085C15.312 14.215 15.2347 14.41 15.1045 14.5547C14.9744 14.6994 14.801 14.783 14.619 14.789ZM16.2546 9.92506C16.2546 10.0166 16.2226 10.1044 16.1655 10.1691C16.1085 10.2338 16.0312 10.2701 15.9506 10.2701H11.9123C11.5284 10.2701 11.1603 10.097 10.8888 9.78885C10.6174 9.48069 10.4649 9.06273 10.4649 8.62692C10.4649 8.19111 10.6174 7.77315 10.8888 7.46498C11.1603 7.15682 11.5284 6.98369 11.9123 6.98369H15.9217C16.0023 6.98369 16.0796 7.02005 16.1366 7.08476C16.1936 7.14948 16.2256 7.23725 16.2256 7.32877L16.2546 9.92506Z" fill="#FED501"/>
</svg>
