<svg width="221" height="45" viewBox="0 0 221 45" fill="none" xmlns="http://www.w3.org/2000/svg">
<path d="M143.8 22.8698L144.674 18.3294H140.303V14.6971C140.303 13.335 141.002 12.8809 142.926 12.8809H144.674V8.3405C144.674 8.3405 142.926 8.3405 141.177 8.3405C137.593 8.3405 135.058 10.5199 135.058 14.6971V18.3294H130.688V22.8698H135.058V35.583H140.303V22.8698H143.8Z" fill="#FED501"/>
<path d="M139.429 0.167763C127.803 0.167763 118.449 9.88425 118.449 21.9617C118.449 34.0392 127.803 43.7557 139.429 43.7557C151.055 43.7557 160.408 34.0392 160.408 21.9617C160.408 9.88425 151.055 0.167763 139.429 0.167763ZM139.429 39.2153C130.25 39.2153 122.82 31.4966 122.82 21.9617C122.82 12.4269 130.25 4.70818 139.429 4.70818C148.607 4.70818 156.038 12.4269 156.038 21.9617C156.038 31.4966 148.607 39.2153 139.429 39.2153Z" fill="#FED501"/>
<path d="M82.8314 30.4875H78.7935L76.8157 33.2269H74.1787V30.4875H69.4814V16.02L70.8 12.4245H88.1879V24.9231L82.8314 30.4875ZM86.1277 24.2382V14.5647H72.1185V27.7481H76.1564V30.4875L78.7935 27.7481H82.8314L86.1277 24.2382Z" fill="#FED501"/>
<path d="M82.7493 17.9889H80.7715V23.5534H82.7493V17.9889Z" fill="#FED501"/>
<path d="M78.7942 17.9889H76.8164V23.5534H78.7942V17.9889Z" fill="#FED501"/>
<path d="M78.7924 1.03883C67.8322 1.03883 59.0146 10.1987 59.0146 21.5844C59.0146 32.97 67.8322 42.1299 78.7924 42.1299C89.7526 42.1299 98.5702 32.97 98.5702 21.5844C98.5702 10.1987 89.7526 1.03883 78.7924 1.03883ZM78.7924 37.8496C70.1396 37.8496 63.135 30.5731 63.135 21.5844C63.135 12.5957 70.1396 5.31915 78.7924 5.31915C87.4452 5.31915 94.4498 12.5957 94.4498 21.5844C94.4498 30.5731 87.4452 37.8496 78.7924 37.8496Z" fill="#FED501"/>
<path d="M199.742 44.1025C211.189 44.1025 220.469 34.4624 220.469 22.5707C220.469 10.679 211.189 1.03883 199.742 1.03883C188.295 1.03883 179.015 10.679 179.015 22.5707C179.015 34.4624 188.295 44.1025 199.742 44.1025Z" fill="#FED501"/>
<path d="M212.714 14.3562C211.759 14.7908 210.735 15.0802 209.658 15.2121C210.759 14.5419 211.601 13.4774 211.999 12.2084C210.971 12.8301 209.833 13.2823 208.62 13.5259C207.651 12.4708 206.267 11.81 204.739 11.81C201.799 11.81 199.421 14.2418 199.421 17.2455C199.421 17.6694 199.468 18.0866 199.556 18.4876C195.136 18.2561 191.218 16.0922 188.595 12.8059C188.136 13.6093 187.871 14.5419 187.871 15.5391C187.871 17.4231 188.814 19.0864 190.239 20.0648C189.368 20.0338 188.547 19.7903 187.832 19.3825C187.831 19.4054 187.831 19.4269 187.831 19.4511C187.831 22.0861 189.664 24.2837 192.097 24.7843C191.652 24.9054 191.182 24.974 190.695 24.974C190.353 24.974 190.021 24.9418 189.696 24.8785C190.371 27.0357 192.336 28.6075 194.663 28.6546C192.847 30.1107 190.551 30.9828 188.057 30.9828C187.63 30.9828 187.204 30.9572 186.789 30.9047C189.142 32.4469 191.94 33.3459 194.944 33.3459C204.727 33.3459 210.077 25.0615 210.077 17.8766C210.077 17.6438 210.07 17.4043 210.059 17.1755C211.098 16.403 212 15.4462 212.714 14.3562Z" fill="#190642"/>
<path d="M40.184 21.8065C40.184 20.3683 40.05 18.8837 39.8267 17.4918H20.4883V25.7037H31.5643C31.1177 28.3483 29.6439 30.668 27.4555 32.1527L34.0653 37.4881C37.9509 33.7301 40.184 28.2555 40.184 21.8065Z" fill="#FED501"/>
<path d="M20.4879 42.5917C26.0259 42.5917 30.6707 40.6895 34.065 37.4418L27.4551 32.1527C25.624 33.4518 23.2569 34.1941 20.4879 34.1941C15.1286 34.1941 10.6178 30.4361 8.96529 25.4254L2.17676 30.8537C5.66035 38.0449 12.7168 42.5917 20.4879 42.5917Z" fill="#FED501"/>
<path d="M8.96576 25.379C8.11719 22.7345 8.11719 19.858 8.96576 17.2135L2.17724 11.7388C-0.725747 17.7702 -0.725747 24.8687 2.17724 30.8537L8.96576 25.379Z" fill="#FED501"/>
<path d="M20.488 8.44476C23.391 8.39837 26.2493 9.55825 28.3484 11.646L34.199 5.52185C30.4921 1.90302 25.5794 -0.0455856 20.488 0.000809732C12.7169 0.000809732 5.66035 4.54755 2.17676 11.7388L8.9653 17.2135C10.6178 12.1564 15.1286 8.44476 20.488 8.44476Z" fill="#FED501"/>
</svg>
