<svg width="40" height="42" viewBox="0 0 40 42" fill="none" xmlns="http://www.w3.org/2000/svg">
<path d="M23.8314 29.4875H19.7935L17.8157 32.2269H15.1787V29.4875H10.4814V15.02L11.8 11.4245H29.1879V23.9231L23.8314 29.4875ZM27.1277 23.2382V13.5647H13.1185V26.7481H17.1564V29.4875L19.7935 26.7481H23.8314L27.1277 23.2382Z" fill="#FED501"/>
<path d="M23.7493 16.9889H21.7715V22.5534H23.7493V16.9889Z" fill="#FED501"/>
<path d="M19.7942 16.9889H17.8164V22.5534H19.7942V16.9889Z" fill="#FED501"/>
<path d="M19.7924 0.038826C8.83224 0.038826 0.0146484 9.19872 0.0146484 20.5844C0.0146484 31.97 8.83224 41.1299 19.7924 41.1299C30.7526 41.1299 39.5702 31.97 39.5702 20.5844C39.5702 9.19872 30.7526 0.038826 19.7924 0.038826ZM19.7924 36.8496C11.1396 36.8496 4.13502 29.5731 4.13502 20.5844C4.13502 11.5957 11.1396 4.31915 19.7924 4.31915C28.4452 4.31915 35.4498 11.5957 35.4498 20.5844C35.4498 29.5731 28.4452 36.8496 19.7924 36.8496Z" fill="#FED501"/>
</svg>
