<svg width="332" height="259" viewBox="0 0 332 259" fill="none" xmlns="http://www.w3.org/2000/svg">
<path d="M-9.875 245H-28V0H-9.875V245ZM22.625 0H4.5V181.25H22.625V0ZM49.8125 0H31.6875V181.25H49.8125V0ZM140.438 0H122.312V217.5H140.438V0ZM77 0H58.875V217.5H77V0ZM113.25 0H95.125V217.5H113.25V0ZM185.75 0H167.625V217.5H185.75V0Z" fill="#FED501"/>
<path d="M172.25 217.5H154.125V0H172.25V217.5ZM208.5 0H190.375V217.5H208.5V0ZM238.125 0H220V217.5H238.125V0ZM327.25 0H309.125V217.5H327.25V0ZM269.25 0H251.125V217.5H269.25V0ZM297.625 0H279.5V217.5H297.625V0ZM360.625 0H342.5V258.5H360.625V0Z" fill="#FED501"/>
</svg>
