<svg width="23" height="23" viewBox="0 0 23 23" fill="none" xmlns="http://www.w3.org/2000/svg">
<path d="M16.6385 10.3141H15.5603V8.01406C15.5603 5.78593 13.7275 3.95312 11.4994 3.95312C9.27128 3.95312 7.43848 5.78593 7.43848 8.01406V10.3141H6.36035V8.01406C6.36035 5.175 8.66035 2.875 11.4994 2.875C14.3385 2.875 16.6385 5.175 16.6385 8.01406V10.3141Z" fill="#190642"/>
<path d="M16.0998 20.0891H6.89981C5.96544 20.0891 5.1748 19.2984 5.1748 18.3641V11.4641C5.1748 10.5297 5.96544 9.73907 6.89981 9.73907H16.0998C17.0342 9.73907 17.8248 10.5297 17.8248 11.4641V18.3641C17.8248 19.3344 17.0342 20.0891 16.0998 20.0891ZM6.89981 10.8891C6.57637 10.8891 6.32481 11.1406 6.32481 11.4641V18.3641C6.32481 18.6875 6.57637 18.9391 6.89981 18.9391H16.0998C16.4232 18.9391 16.6748 18.6875 16.6748 18.3641V11.4641C16.6748 11.1406 16.4232 10.8891 16.0998 10.8891H6.89981Z" fill="#190642"/>
<path d="M12.6496 13.1891C12.6496 13.8359 12.1465 14.3391 11.4996 14.3391C10.8527 14.3391 10.3496 13.8359 10.3496 13.1891C10.3496 12.5422 10.8527 12.0391 11.4996 12.0391C12.1465 12.0391 12.6496 12.5781 12.6496 13.1891Z" fill="#190642"/>
<path d="M11.7877 13.1891H11.2127L10.6377 16.6391H12.3627L11.7877 13.1891Z" fill="#190642"/>
</svg>
