<svg width="736" height="736" viewBox="0 0 736 736" fill="none" xmlns="http://www.w3.org/2000/svg">
<circle cx="368" cy="368" r="354" stroke="#FED501" stroke-width="28"/>
<path d="M138 197C131.373 197 126 202.373 126 209C126 215.627 131.373 221 138 221V197ZM333.5 300L321.826 297.221L321.658 297.929L321.576 298.652L333.5 300ZM138 351.455C131.373 351.455 126 356.827 126 363.455C126 370.082 131.373 375.455 138 375.455V351.455ZM262.91 526V538H263.076L263.241 537.995L262.91 526ZM138 514C131.373 514 126 519.373 126 526C126 532.627 131.373 538 138 538V514ZM138 221H249.685V197H138V221ZM249.685 221C284.09 221 303.44 232.236 313.52 245.88C323.842 259.854 326.226 278.74 321.826 297.221L345.174 302.779C350.774 279.26 348.356 252.646 332.824 231.62C317.048 210.264 289.491 197 249.685 197V221ZM321.576 298.652C316.142 346.726 267.634 348.777 258.599 352.256L267.222 374.653C264.554 375.68 337.858 368.274 345.424 301.348L321.576 298.652ZM138 375.455H262.91V351.455H138V375.455ZM261.146 375.324C296.403 380.566 313.004 391.893 321.203 402.766C329.529 413.807 331 426.681 331 439.211H355C355 425.264 353.532 405.775 340.366 388.316C327.073 370.688 303.63 357.376 264.675 351.585L261.146 375.324ZM331 456.5C331 476.469 320.613 490.289 306.348 499.719C291.707 509.4 273.907 513.693 262.58 514.005L263.241 537.995C278.611 537.572 300.855 532.122 319.584 519.739C338.691 507.108 355 486.545 355 456.5H331ZM262.91 514H138V538H262.91V514ZM331 439.211V456.5H355V439.211H331Z" fill="#FED501"/>
<path d="M405 210L604 210" stroke="#FED501" stroke-width="24" stroke-linecap="round"/>
<path d="M412.449 363.241V526.059" stroke="#FED501" stroke-width="24" stroke-linecap="round"/>
<path d="M412.449 362.176H577.396" stroke="#FED501" stroke-width="24" stroke-linecap="round"/>
</svg>
