<svg width="73" height="30" viewBox="0 0 73 30" fill="none" xmlns="http://www.w3.org/2000/svg">
<path d="M29.7754 27.3608V11.0067C29.7754 9.5619 30.2916 8.17625 31.2104 7.15461C32.1293 6.13296 33.3755 5.55901 34.6749 5.55901L39.0172 5.56574C40.3132 5.56864 41.5553 6.14319 42.4707 7.16328C43.3862 8.18338 43.9002 9.56566 43.9 11.0067V14.487C43.9 15.9319 43.3839 17.3176 42.465 18.3394C41.5462 19.3612 40.3 19.9353 39.0005 19.9356H32.863" stroke="#FED501" stroke-linecap="round" stroke-linejoin="round"/>
<path d="M45.1094 5.55794H46.9931C47.5265 5.55794 48.038 5.79351 48.4151 6.21284C48.7922 6.63217 49.0041 7.2009 49.0041 7.79392V20.0093" stroke="#FED501" stroke-linecap="round" stroke-linejoin="round"/>
<path d="M48.6009 3.6655L47.7468 2.71505C47.6964 2.65907 47.6565 2.5926 47.6292 2.51943C47.6019 2.44627 47.5879 2.36785 47.5879 2.28865C47.5879 2.20945 47.6019 2.13103 47.6292 2.05787C47.6565 1.9847 47.6964 1.91823 47.7468 1.86225L48.6009 0.912647C48.7029 0.799395 48.8411 0.735779 48.9852 0.735779C49.1293 0.735779 49.2675 0.799395 49.3694 0.912647L50.2228 1.86225C50.2732 1.91823 50.3131 1.9847 50.3404 2.05787C50.3677 2.13103 50.3817 2.20945 50.3817 2.28865C50.3817 2.36785 50.3677 2.44627 50.3404 2.51943C50.3131 2.5926 50.2732 2.65907 50.2228 2.71505L49.3657 3.6655C49.3152 3.72155 49.2554 3.76601 49.1895 3.79634C49.1237 3.82668 49.0531 3.84229 48.9818 3.84229C48.9105 3.84229 48.8399 3.82668 48.774 3.79634C48.7082 3.76601 48.6483 3.72155 48.5979 3.6655" fill="#FED501"/>
<path d="M52.623 5.54701H54.4909C55.4518 5.54657 56.3734 5.97053 57.0531 6.72564L61.4226 11.5841C61.5571 11.7338 61.7169 11.8526 61.8927 11.9337C62.0685 12.0148 62.257 12.0565 62.4474 12.0565C62.6377 12.0565 62.8262 12.0148 63.0021 11.9337C63.1779 11.8526 63.3376 11.7338 63.4722 11.5841L67.8258 6.74416C68.1621 6.37022 68.5615 6.07365 69.001 5.87142C69.4405 5.66918 69.9115 5.56524 70.3872 5.56553H71.906" stroke="#FED501" stroke-linecap="round" stroke-linejoin="round"/>
<path d="M52.623 19.9027H54.4909C55.4517 19.9031 56.3733 19.4791 57.0531 18.7241L61.4226 13.8656C61.6945 13.5636 62.0631 13.3939 62.4474 13.3939C62.8317 13.3939 63.2003 13.5636 63.4722 13.8656L67.8258 18.7064C68.5052 19.4614 69.4266 19.8854 70.3872 19.885H71.906" stroke="#FED501" stroke-linecap="round" stroke-linejoin="round"/>
<path d="M18.6376 23.0056C18.1768 23.0074 17.7202 22.9077 17.2941 22.7122C16.8681 22.5167 16.4812 22.2293 16.1557 21.8666L12.5706 17.8778C12.4438 17.743 12.2751 17.6678 12.0996 17.6678C11.9242 17.6678 11.7555 17.743 11.6287 17.8778L8.03147 21.8775C7.70616 22.2408 7.31933 22.5288 6.89332 22.7249C6.46732 22.9209 6.0106 23.0212 5.54953 23.0199H4.84766L9.39056 28.0711C10.0719 28.827 10.9951 29.2516 11.9577 29.2516C12.9202 29.2516 13.8435 28.827 14.5248 28.0711L19.0768 23.009L18.6376 23.0056Z" fill="#FED501"/>
<path d="M5.55029 8.90947C6.01136 8.9081 6.4681 9.00836 6.89411 9.20445C7.32011 9.40054 7.70694 9.68857 8.03223 10.0519L11.6295 14.0525C11.7545 14.1911 11.9238 14.2689 12.1004 14.2689C12.277 14.2689 12.4463 14.1911 12.5713 14.0525L16.1557 10.067C16.4807 9.70327 16.8675 9.41489 17.2935 9.21863C17.7196 9.02237 18.1765 8.92215 18.6376 8.92379H19.0692L14.5172 3.86245C14.1802 3.48752 13.7799 3.1901 13.3395 2.98719C12.899 2.78427 12.4269 2.67982 11.9501 2.67982C11.4733 2.67982 11.0012 2.78427 10.5607 2.98719C10.1203 3.1901 9.72006 3.48752 9.38299 3.86245L4.84766 8.90947H5.55029Z" fill="#FED501"/>
<path d="M22.8343 13.1112L20.0836 10.0527C20.0215 10.0809 19.9552 10.0957 19.8882 10.0965H18.6374C17.9865 10.0983 17.3626 10.3857 16.9013 10.8963L13.3169 14.8792C12.9941 15.2374 12.5567 15.4386 12.1006 15.4386C11.6445 15.4386 11.207 15.2374 10.8842 14.8792L7.28624 10.8811C6.82504 10.3702 6.2011 10.0825 5.5501 10.0805H4.01461C3.95133 10.0789 3.88879 10.0649 3.82986 10.0392L1.06173 13.1112C0.381839 13.8688 0 14.8953 0 15.9656C0 17.0358 0.381839 18.0624 1.06173 18.82L3.82381 21.8911C3.88261 21.8649 3.94522 21.8509 4.00855 21.8499H5.5501C6.20108 21.8477 6.825 21.56 7.28624 21.0492L10.8835 17.0495C11.5338 16.3272 12.6673 16.3272 13.3169 17.0495L16.9013 21.0341C17.3626 21.5446 17.9865 21.832 18.6374 21.8339H19.8882C19.9553 21.8344 20.0216 21.8492 20.0836 21.8776L22.8343 18.8191C23.1715 18.4443 23.439 17.9993 23.6215 17.5096C23.804 17.0198 23.8979 16.4949 23.8979 15.9647C23.8979 15.4346 23.804 14.9097 23.6215 14.4199C23.439 13.9302 23.1715 13.4852 22.8343 13.1104" fill="#FED501"/>
<path d="M33.5081 25.9707C33.2807 25.9818 33.0551 26.0199 32.835 26.0844V27.0811C33.0034 27.1468 33.1806 27.1798 33.359 27.1788C33.8087 27.1788 34.0214 27.0104 34.0214 26.5701C34.0214 26.1559 33.8473 25.9707 33.5081 25.9707ZM32.6836 27.8228V25.8503H32.807L32.8199 25.9345C33.0492 25.8668 33.2841 25.8247 33.521 25.8091C33.6851 25.7963 33.848 25.8488 33.9806 25.9573C34.132 26.097 34.1835 26.3226 34.1835 26.5685C34.1835 26.8143 34.1078 27.0685 33.8958 27.2024C33.734 27.2921 33.5548 27.3364 33.3741 27.3312C33.1913 27.3299 33.0097 27.299 32.835 27.2394V27.8195L32.6836 27.8228Z" fill="#FED501"/>
<path d="M35.3097 25.9649C34.8607 25.9649 34.6601 26.1215 34.6601 26.5618C34.6601 26.987 34.8577 27.1789 35.3097 27.1789C35.7618 27.1789 35.9571 27.024 35.9571 26.5845C35.9571 26.1594 35.7595 25.9649 35.3097 25.9649ZM35.8882 27.1789C35.7368 27.2985 35.5384 27.333 35.3097 27.333C35.0811 27.333 34.8759 27.2959 34.7297 27.1789C34.5654 27.0501 34.498 26.8422 34.498 26.5736C34.498 26.305 34.5654 26.0963 34.7297 25.9649C34.8759 25.8479 35.0765 25.8109 35.3097 25.8109C35.5429 25.8109 35.739 25.8479 35.8882 25.9649C36.0548 26.0963 36.1191 26.3101 36.1191 26.5702C36.1191 26.8304 36.0525 27.0501 35.8882 27.1789Z" fill="#FED501"/>
<path d="M38.021 27.2925L37.5197 26.0962H37.5099L37.0162 27.2925H36.8777L36.3477 25.8504H36.5142L36.9587 27.061H36.9693L37.4523 25.8504H37.5909L38.0861 27.061H38.0967L38.5305 25.8504H38.6948L38.1603 27.2925H38.021Z" fill="#FED501"/>
<path d="M39.6575 25.9615C39.241 25.9615 39.1002 26.1677 39.0745 26.4666H40.2405C40.2277 26.1383 40.0762 25.9615 39.6575 25.9615ZM39.6522 27.333C39.4031 27.333 39.241 27.2926 39.1123 27.173C38.9609 27.0273 38.9102 26.816 38.9102 26.5735C38.9102 26.3311 38.9791 26.0962 39.1517 25.9564C39.3027 25.8508 39.4794 25.7999 39.6575 25.8108C39.8391 25.7986 40.0198 25.8473 40.1762 25.9505C40.3632 26.0903 40.3995 26.3361 40.3995 26.6156H39.0707C39.076 26.9128 39.1631 27.1755 39.6666 27.1755C39.8917 27.1689 40.1159 27.1408 40.3367 27.0913V27.2429C40.1123 27.2942 39.8842 27.3238 39.6552 27.3313" fill="#FED501"/>
<path d="M40.8359 27.2925V25.8504H40.9586L40.9715 25.9346C41.2463 25.8571 41.3751 25.8091 41.6166 25.8091H41.6348V25.9691H41.5984C41.3955 25.9691 41.2721 26.0002 40.9874 26.0827V27.2908L40.8359 27.2925Z" fill="#FED501"/>
<path d="M42.5109 25.9615C42.0953 25.9615 41.9537 26.1677 41.928 26.4666H43.0939C43.0811 26.1383 42.9296 25.9615 42.5109 25.9615ZM42.5057 27.333C42.2566 27.333 42.0953 27.2926 41.9666 27.173C41.8152 27.0273 41.7637 26.816 41.7637 26.5735C41.7637 26.3311 41.8333 26.0962 42.0052 25.9564C42.1562 25.851 42.3329 25.8002 42.5109 25.8108C42.6925 25.7986 42.8732 25.8473 43.0296 25.9505C43.2173 26.0903 43.2567 26.3361 43.2567 26.6156H41.9227C41.928 26.9128 42.015 27.1755 42.5185 27.1755C42.7439 27.169 42.9683 27.1408 43.1893 27.0913V27.2429C42.9649 27.2942 42.7369 27.3237 42.5079 27.3313" fill="#FED501"/>
<path d="M44.9149 26.0617C44.7465 25.9963 44.5693 25.9636 44.3909 25.9649C43.9412 25.9649 43.7284 26.1332 43.7284 26.5735C43.7284 26.9903 43.9033 27.173 44.2418 27.173C44.469 27.1613 44.6945 27.1237 44.9149 27.061V26.0617ZM44.9436 27.2925L44.93 27.2083C44.7008 27.2768 44.4659 27.3192 44.2289 27.3346C44.0645 27.3484 43.9013 27.2954 43.7693 27.1856C43.6179 27.0458 43.5664 26.8202 43.5664 26.5752C43.5664 26.3176 43.6421 26.0751 43.8541 25.9438C44.0161 25.852 44.1963 25.8068 44.378 25.8125C44.5599 25.8153 44.7405 25.8458 44.9149 25.9034V25.2425H45.0663V27.2925H44.9436Z" fill="#FED501"/>
<path d="M47.2894 25.9707C47.062 25.9818 46.8364 26.0199 46.6163 26.0844V27.0787C46.7842 27.1461 46.9616 27.1801 47.1402 27.1788C47.59 27.1788 47.8028 27.0105 47.8028 26.5702C47.8028 26.156 47.6286 25.9707 47.2894 25.9707ZM47.6771 27.2041C47.5155 27.2938 47.3366 27.338 47.1561 27.3329C46.9586 27.3315 46.7625 27.2949 46.5754 27.2243L46.5678 27.2925H46.4648V25.2425H46.6163V25.9303C46.841 25.8664 47.0707 25.8264 47.3023 25.8108C47.4664 25.798 47.6293 25.8505 47.7619 25.9589C47.9133 26.0987 47.9648 26.3243 47.9648 26.5702C47.9648 26.816 47.8891 27.0702 47.6771 27.2041Z" fill="#FED501"/>
<path d="M48.1688 27.8439V27.6873C48.2446 27.6957 48.3127 27.7016 48.3611 27.7016C48.5489 27.7016 48.664 27.641 48.767 27.4045L48.8162 27.29L48.1348 25.8479H48.3104L48.8911 27.093H48.901L49.4529 25.8479H49.6255L48.8957 27.4676C48.7624 27.7614 48.6186 27.8582 48.3536 27.8582C48.291 27.8579 48.2286 27.8531 48.1666 27.8439" fill="#FED501"/>
<path d="M51.7125 26.47H51.2097V26.9751H51.7125C52.0592 26.9751 52.1902 26.9322 52.1902 26.7226C52.1902 26.497 52.01 26.47 51.7094 26.47H51.7125ZM51.6186 25.6551H51.2082V26.1686H51.6216C51.9631 26.1686 52.0994 26.1232 52.0994 25.9093C52.0994 25.6803 51.9267 25.6568 51.6186 25.6568V25.6551ZM52.4 27.162C52.2145 27.2934 51.9911 27.2984 51.583 27.2984H50.8145V25.3369H51.5648C51.9169 25.3369 52.1327 25.3419 52.3121 25.4623C52.3718 25.5018 52.4203 25.5591 52.4521 25.6277C52.484 25.6963 52.4979 25.7734 52.4923 25.8504C52.4923 26.0558 52.4166 26.193 52.2145 26.2848V26.2957C52.4416 26.353 52.587 26.4818 52.587 26.7588C52.5927 26.8379 52.5781 26.9171 52.545 26.9875C52.512 27.0578 52.4617 27.1162 52.4 27.1561" fill="#FED501"/>
<path d="M54.1256 26.6873C53.9742 26.673 53.8228 26.6645 53.6585 26.6645C53.3942 26.6645 53.3011 26.7243 53.3011 26.859C53.3011 26.9937 53.3768 27.0526 53.5812 27.0526C53.7648 27.0459 53.9473 27.0177 54.1256 26.9684V26.6873ZM54.2013 27.2926L54.1915 27.2084C53.9619 27.2803 53.7256 27.3227 53.4873 27.3347C53.3497 27.345 53.2125 27.3079 53.0944 27.2286C53.0437 27.1812 53.0043 27.1206 52.9797 27.0522C52.9552 26.9837 52.9463 26.9096 52.9538 26.8364C52.9612 26.7632 52.9849 26.6932 53.0227 26.6327C53.0604 26.5721 53.1111 26.5229 53.1701 26.4894C53.3064 26.4179 53.4889 26.412 53.6562 26.412C53.7917 26.412 53.9742 26.4204 54.1256 26.4322V26.4061C54.1256 26.1805 53.9924 26.1064 53.6274 26.1064C53.4866 26.1064 53.314 26.1148 53.1497 26.1316V25.8403C53.3321 25.8235 53.5381 25.8126 53.7077 25.8126C53.9348 25.8126 54.1672 25.8319 54.3134 25.9464C54.4595 26.0609 54.4905 26.2268 54.4905 26.4406V27.2943L54.2013 27.2926Z" fill="#FED501"/>
<path d="M56.1832 27.2925V26.4969C56.1832 26.2342 56.0628 26.1399 55.847 26.1399C55.6679 26.1488 55.4902 26.1793 55.317 26.2309V27.2934H54.9551V25.8503H55.2504L55.2632 25.9421C55.489 25.8682 55.7218 25.8241 55.9568 25.8108C56.1164 25.7966 56.275 25.8494 56.4012 25.9589C56.5034 26.0616 56.5421 26.2048 56.5421 26.4102V27.2925H56.1832Z" fill="#FED501"/>
<path d="M57.5652 27.333C57.3979 27.333 57.2154 27.3069 57.0821 27.1814C56.9231 27.0383 56.877 26.8135 56.877 26.5702C56.877 26.3421 56.9436 26.0929 57.1412 25.9531C57.3032 25.8361 57.5031 25.8109 57.7114 25.8109C57.8628 25.8109 58.0066 25.8218 58.1656 25.8386V26.1476C58.0347 26.1333 57.8779 26.1223 57.7522 26.1223C57.4077 26.1223 57.2457 26.2419 57.2457 26.5736C57.2457 26.8843 57.3668 27.019 57.6493 27.019C57.8323 27.0123 58.0145 26.9875 58.1937 26.9449V27.2412C57.9864 27.2949 57.7749 27.3256 57.5622 27.333" fill="#FED501"/>
<path d="M59.2649 26.1131C58.9204 26.1131 58.769 26.2335 58.769 26.5618C58.769 26.8902 58.9204 27.0299 59.2649 27.0299C59.6094 27.0299 59.7555 26.9129 59.7555 26.5845C59.7555 26.2562 59.6094 26.1131 59.2649 26.1131ZM59.8865 27.1814C59.7275 27.301 59.5193 27.333 59.2649 27.333C59.0105 27.333 58.7978 27.2985 58.641 27.1814C58.4608 27.0501 58.3965 26.8329 58.3965 26.5736C58.3965 26.3143 58.4608 26.0929 58.641 25.9616C58.7978 25.8445 59.0052 25.8109 59.2649 25.8109C59.5246 25.8109 59.7275 25.8445 59.8865 25.9616C60.066 26.0929 60.1281 26.3135 60.1281 26.5702C60.1281 26.827 60.0637 27.0501 59.8865 27.1814Z" fill="#FED501"/>
<path d="M62.2208 27.3329C62.0027 27.3329 61.7665 27.2925 61.5893 27.13C61.3788 26.9355 61.3145 26.6358 61.3145 26.3134C61.3145 26.0246 61.397 25.682 61.6711 25.4824C61.8846 25.3284 62.1488 25.2964 62.4161 25.2964C62.6115 25.2964 62.8121 25.3107 63.0302 25.3309V25.682C62.8432 25.6651 62.6115 25.6508 62.432 25.6508C61.9308 25.6508 61.718 25.8621 61.718 26.3134C61.718 26.7646 61.9156 26.9784 62.2851 26.9784C62.5492 26.9683 62.8117 26.9291 63.0688 26.8614V27.21C62.7904 27.2815 62.5064 27.3227 62.2208 27.3329Z" fill="#FED501"/>
<path d="M64.1308 26.0676C63.8279 26.0676 63.7143 26.188 63.6909 26.4043H64.5646C64.554 26.1703 64.4306 26.0676 64.1308 26.0676ZM64.0762 27.3304C63.8635 27.3304 63.6704 27.3017 63.5266 27.1704C63.3827 27.0391 63.3184 26.8135 63.3184 26.5676C63.3184 26.3479 63.3827 26.1021 63.5629 25.959C63.7219 25.8335 63.9248 25.8083 64.1308 25.8083C64.3155 25.8083 64.5335 25.831 64.6925 25.9539C64.9007 26.1164 64.9197 26.3681 64.9197 26.6644H63.6886C63.6962 26.885 63.8014 27.0273 64.1663 27.0273C64.3981 27.0217 64.6291 26.9969 64.8576 26.9532V27.2361C64.5998 27.2905 64.3385 27.322 64.0762 27.3304Z" fill="#FED501"/>
<path d="M66.5348 27.2925V26.4969C66.5348 26.2342 66.4144 26.1399 66.1986 26.1399C66.0195 26.1488 65.8418 26.1793 65.6686 26.2309V27.2934H65.3066V25.8503H65.6019L65.6148 25.9421C65.8406 25.8682 66.0734 25.8241 66.3084 25.8108C66.468 25.7966 66.6266 25.8494 66.7528 25.9589C66.8551 26.0616 66.8937 26.2048 66.8937 26.4102V27.2925H66.5348Z" fill="#FED501"/>
<path d="M67.9268 27.333C67.7519 27.333 67.5929 27.2783 67.5058 27.1268C67.4345 26.9958 67.4012 26.8435 67.4104 26.6907V26.1502H67.1484V25.8505H67.4104L67.449 25.4135H67.7686V25.8505H68.2797V26.1502H67.7686V26.6132C67.7637 26.7064 67.7758 26.7998 67.8042 26.8877C67.8428 26.9845 67.9276 27.0215 68.0412 27.0215C68.128 27.0198 68.2146 27.0102 68.3001 26.9929V27.2817C68.1768 27.3114 68.0514 27.3286 67.9253 27.333" fill="#FED501"/>
<path d="M68.6309 27.2925V25.8503H68.9262L68.939 25.9421C69.1462 25.8639 69.3625 25.8196 69.5811 25.8107C69.5965 25.8097 69.6119 25.8097 69.6273 25.8107V26.1601C69.5864 26.1601 69.5372 26.1601 69.5016 26.1601C69.3299 26.1609 69.1589 26.1858 68.9928 26.2342V27.2992L68.6309 27.2925Z" fill="#FED501"/>
<path d="M70.944 26.6873C70.7926 26.673 70.6412 26.6645 70.4761 26.6645C70.2119 26.6645 70.1195 26.7243 70.1195 26.859C70.1195 26.9937 70.1952 27.0526 70.3989 27.0526C70.5827 27.0459 70.7655 27.0177 70.944 26.9684V26.6873ZM71.0197 27.2926L71.0091 27.2084C70.7796 27.2803 70.5433 27.3227 70.305 27.3347C70.1673 27.345 70.0301 27.3079 69.912 27.2286C69.8643 27.1879 69.8263 27.1349 69.8012 27.0742C69.7761 27.0134 69.7648 26.9468 69.7682 26.8801C69.7647 26.7979 69.7837 26.7166 69.8228 26.6468C69.8619 26.577 69.9192 26.5221 69.987 26.4894C70.1233 26.4179 70.305 26.412 70.4723 26.412C70.6086 26.412 70.7911 26.4204 70.9425 26.4322V26.4061C70.9425 26.1805 70.8085 26.1064 70.4443 26.1064C70.3027 26.1064 70.1308 26.1148 69.9665 26.1316V25.8403C70.149 25.8235 70.3542 25.8126 70.5238 25.8126C70.751 25.8126 70.9834 25.8319 71.1295 25.9464C71.2757 26.0609 71.3067 26.2268 71.3067 26.4406V27.2943L71.0197 27.2926Z" fill="#FED501"/>
<path d="M71.7754 25.2425H72.1376V27.2926H71.7754V25.2425Z" fill="#FED501"/>
</svg>
