<svg width="204" height="204" viewBox="0 0 204 204" fill="none" xmlns="http://www.w3.org/2000/svg">
<path d="M127.5 73.3125H121.125V89.25H127.5V73.3125Z" fill="#FED501"/>
<path d="M140.25 73.3125H133.875V89.25H140.25V73.3125Z" fill="#FED501"/>
<path d="M127.5 95.625H121.125V102H127.5V95.625Z" fill="#FED501"/>
<path d="M140.25 95.625H133.875V102H140.25V95.625Z" fill="#FED501"/>
<path d="M105.188 108.375H98.8125V114.75H105.188V108.375Z" fill="#FED501"/>
<path d="M89.25 172.125H82.875V178.5H89.25V172.125Z" fill="#FED501"/>
<path d="M140.25 108.375H133.875V114.75H140.25V108.375Z" fill="#FED501"/>
<path d="M127.5 121.125H121.125V127.5H127.5V121.125Z" fill="#FED501"/>
<path d="M140.25 121.125H133.875V127.5H140.25V121.125Z" fill="#FED501"/>
<path d="M6.375 6.375H15.9375V0H3.1875C1.428 0 0 1.428 0 3.1875V15.9375H6.375V6.375Z" fill="#FED501"/>
<path d="M200.812 0H188.062V6.375H197.625V15.9375H204V3.1875C204 1.428 202.572 0 200.812 0Z" fill="#FED501"/>
<path d="M6.375 188.062H0V200.812C0 202.572 1.428 204 3.1875 204H15.9375V197.625H6.375V188.062Z" fill="#FED501"/>
<path d="M197.625 197.625H188.062V204H200.812C202.572 204 204 202.572 204 200.812V188.062H197.625V197.625Z" fill="#FED501"/>
<path d="M12.75 15.9375V54.1875C12.75 55.947 14.178 57.375 15.9375 57.375H54.1875C55.947 57.375 57.375 55.947 57.375 54.1875V15.9375C57.375 14.178 55.947 12.75 54.1875 12.75H15.9375C14.178 12.75 12.75 14.178 12.75 15.9375ZM19.125 19.125H51V51H19.125V19.125Z" fill="#FED501"/>
<path d="M41.4375 25.5H28.6875C26.928 25.5 25.5 26.928 25.5 28.6875V41.4375C25.5 43.197 26.928 44.625 28.6875 44.625H41.4375C43.197 44.625 44.625 43.197 44.625 41.4375V28.6875C44.625 26.928 43.197 25.5 41.4375 25.5ZM38.25 38.25H31.875V31.875H38.25V38.25Z" fill="#FED501"/>
<path d="M149.812 57.375H188.062C189.822 57.375 191.25 55.947 191.25 54.1875V15.9375C191.25 14.178 189.822 12.75 188.062 12.75H149.812C148.053 12.75 146.625 14.178 146.625 15.9375V54.1875C146.625 55.947 148.053 57.375 149.812 57.375ZM153 19.125H184.875V51H153V19.125Z" fill="#FED501"/>
<path d="M175.312 25.5H162.562C160.803 25.5 159.375 26.928 159.375 28.6875V41.4375C159.375 43.197 160.803 44.625 162.562 44.625H175.312C177.072 44.625 178.5 43.197 178.5 41.4375V28.6875C178.5 26.928 177.072 25.5 175.312 25.5ZM172.125 38.25H165.75V31.875H172.125V38.25Z" fill="#FED501"/>
<path d="M54.1875 146.625H15.9375C14.178 146.625 12.75 148.053 12.75 149.812V188.062C12.75 189.822 14.178 191.25 15.9375 191.25H54.1875C55.947 191.25 57.375 189.822 57.375 188.062V149.812C57.375 148.053 55.947 146.625 54.1875 146.625ZM51 184.875H19.125V153H51V184.875Z" fill="#FED501"/>
<path d="M28.6875 178.5H41.4375C43.197 178.5 44.625 177.072 44.625 175.312V162.562C44.625 160.803 43.197 159.375 41.4375 159.375H28.6875C26.928 159.375 25.5 160.803 25.5 162.562V175.312C25.5 177.072 26.928 178.5 28.6875 178.5ZM31.875 165.75H38.25V172.125H31.875V165.75Z" fill="#FED501"/>
<path d="M140.25 60.5625H117.938V22.3125H111.562V63.75C111.562 65.5095 112.991 66.9375 114.75 66.9375H140.25V60.5625Z" fill="#FED501"/>
<path d="M92.4375 38.25H70.125V44.625H92.4375V38.25Z" fill="#FED501"/>
<path d="M105.188 25.5H82.875V31.875H105.188V25.5Z" fill="#FED501"/>
<path d="M19.125 60.5625H12.75V89.25H19.125V60.5625Z" fill="#FED501"/>
<path d="M57.375 79.6875H25.5V86.0625H54.1875V98.8125H60.5625V82.875C60.5625 81.1155 59.1345 79.6875 57.375 79.6875Z" fill="#FED501"/>
<path d="M35.0625 63.75H28.6875V70.125H35.0625V63.75Z" fill="#FED501"/>
<path d="M73.3125 57.375H66.9375V82.875H73.3125V57.375Z" fill="#FED501"/>
<path d="M95.625 89.25H66.9375V95.625H95.625V89.25Z" fill="#FED501"/>
<path d="M194.438 92.4375H188.062V124.312H178.5V130.688H191.25C193.009 130.688 194.438 129.259 194.438 127.5V92.4375Z" fill="#FED501"/>
<path d="M89.25 57.375H82.875V63.75H89.25V57.375Z" fill="#FED501"/>
<path d="M19.125 105.188H12.75V130.688H19.125V105.188Z" fill="#FED501"/>
<path d="M41.4375 133.875H12.75V140.25H41.4375V133.875Z" fill="#FED501"/>
<path d="M159.375 89.25H165.75V76.5C165.75 74.7405 164.322 73.3125 162.562 73.3125H146.625V79.6875H159.375V89.25Z" fill="#FED501"/>
<path d="M35.0625 105.188H28.6875V111.562H35.0625V105.188Z" fill="#FED501"/>
<path d="M70.125 102H63.75V127.5H70.125V102Z" fill="#FED501"/>
<path d="M92.4375 133.875H63.75V140.25H92.4375V133.875Z" fill="#FED501"/>
<path d="M54.1875 121.125H25.5V127.5H54.1875V121.125Z" fill="#FED501"/>
<path d="M73.3125 165.75H66.9375V178.5H73.3125V165.75Z" fill="#FED501"/>
<path d="M92.4375 153H63.75V159.375H92.4375V153Z" fill="#FED501"/>
<path d="M114.75 140.25V124.312C114.75 122.553 113.322 121.125 111.562 121.125H79.6875V127.5H108.375V140.25H114.75Z" fill="#FED501"/>
<path d="M89.25 102H82.875V108.375H89.25V102Z" fill="#FED501"/>
<path d="M54.1875 108.375H47.8125V114.75H54.1875V108.375Z" fill="#FED501"/>
<path d="M194.438 168.938H188.062V191.25H194.438V168.938Z" fill="#FED501"/>
<path d="M181.688 184.875H172.125V191.25H181.688V184.875Z" fill="#FED501"/>
<path d="M178.5 165.75H172.125V178.5H178.5V165.75Z" fill="#FED501"/>
<path d="M194.438 140.25C194.438 138.491 193.009 137.062 191.25 137.062H156.188V143.438H188.062V162.562H194.438V140.25Z" fill="#FED501"/>
<path d="M153 178.5V162.562C153 160.803 151.572 159.375 149.812 159.375H114.75V165.75H146.625V178.5H153Z" fill="#FED501"/>
<path d="M181.688 149.812H159.375V156.188H181.688V149.812Z" fill="#FED501"/>
<path d="M86.0625 184.875H63.75V191.25H86.0625V184.875Z" fill="#FED501"/>
<path d="M102 162.562H95.625V191.25H102V162.562Z" fill="#FED501"/>
<path d="M114.75 146.625H102V153H114.75V146.625Z" fill="#FED501"/>
<path d="M149.812 114.75H165.75V108.375H153V89.25H146.625V111.562C146.625 113.322 148.053 114.75 149.812 114.75Z" fill="#FED501"/>
<path d="M175.312 95.625H159.375V102H175.312V95.625Z" fill="#FED501"/>
<path d="M181.688 63.75H172.125V70.125H181.688V63.75Z" fill="#FED501"/>
<path d="M194.438 63.75H188.062V79.6875H194.438V63.75Z" fill="#FED501"/>
<path d="M178.5 79.6875H172.125V86.0625H178.5V79.6875Z" fill="#FED501"/>
<path d="M124.312 54.1875H137.062C138.822 54.1875 140.25 52.7595 140.25 51V9.5625H133.875V47.8125H124.312V54.1875Z" fill="#FED501"/>
<path d="M76.5 15.9375H124.312V9.5625H73.3125C71.553 9.5625 70.125 10.9905 70.125 12.75V28.6875H76.5V15.9375Z" fill="#FED501"/>
<path d="M79.6875 76.5H102C103.76 76.5 105.188 75.072 105.188 73.3125V47.8125H98.8125V70.125H79.6875V76.5Z" fill="#FED501"/>
<path d="M114.75 73.3125H108.375V86.0625H114.75V73.3125Z" fill="#FED501"/>
<path d="M137.062 172.125H114.75V178.5H137.062V172.125Z" fill="#FED501"/>
<path d="M143.438 184.875H114.75V191.25H143.438V184.875Z" fill="#FED501"/>
<path d="M159.375 184.875H153V191.25H162.562C164.322 191.25 165.75 189.822 165.75 188.062V162.562H159.375V184.875Z" fill="#FED501"/>
<path d="M57.375 133.875H51V140.25H57.375V133.875Z" fill="#FED501"/>
<path d="M137.062 133.875H124.312V140.25H137.062V133.875Z" fill="#FED501"/>
<path d="M153 121.125H146.625V130.688H153V121.125Z" fill="#FED501"/>
<path d="M149.812 137.062H143.438V143.438H149.812V137.062Z" fill="#FED501"/>
<path d="M133.875 146.625H124.312V153H133.875V146.625Z" fill="#FED501"/>
<path d="M165.75 121.125H159.375V127.5H165.75V121.125Z" fill="#FED501"/>
<path d="M181.688 108.375H172.125V114.75H181.688V108.375Z" fill="#FED501"/>
<path d="M127.5 108.375H111.562V114.75H127.5V108.375Z" fill="#FED501"/>
<path d="M114.75 92.4375H108.375V102H114.75V92.4375Z" fill="#FED501"/>
</svg>
