<svg width="121" height="41" viewBox="0 0 121 41" fill="none" xmlns="http://www.w3.org/2000/svg">
<circle cx="20.5" cy="20.5" r="19.5" stroke="#FED501" stroke-width="2"/>
<path d="M7.6875 10.6427C7.13522 10.6427 6.6875 11.0904 6.6875 11.6427C6.6875 12.195 7.13522 12.6427 7.6875 12.6427V10.6427ZM18.5781 16.712L17.6053 16.4804L17.5913 16.5394L17.5845 16.5997L18.5781 16.712ZM7.6875 19.2468C7.13522 19.2468 6.6875 19.6946 6.6875 20.2468C6.6875 20.7991 7.13522 21.2468 7.6875 21.2468V19.2468ZM14.6458 29.3017V30.3017H14.6596L14.6734 30.3013L14.6458 29.3017ZM7.6875 28.3017C7.13522 28.3017 6.6875 28.7494 6.6875 29.3017C6.6875 29.854 7.13522 30.3017 7.6875 30.3017V28.3017ZM7.6875 12.6427H13.9091V10.6427H7.6875V12.6427ZM13.9091 12.6427C15.7511 12.6427 16.7157 13.2406 17.1984 13.8941C17.7015 14.5752 17.8339 15.5205 17.6053 16.4804L19.5509 16.9436C19.8795 15.5638 19.7443 13.9745 18.8071 12.7058C17.8496 11.4096 16.2011 10.6427 13.9091 10.6427V12.6427ZM17.5845 16.5997C17.3112 19.0173 14.9515 19.0576 14.2865 19.3136L15.0051 21.1801C14.6949 21.2995 19.1209 20.813 19.5718 16.8243L17.5845 16.5997ZM7.6875 21.2468H14.6458V19.2468H7.6875V21.2468ZM14.4988 21.236C16.4117 21.5204 17.242 22.1239 17.6284 22.6363C18.0254 23.1627 18.1073 23.7885 18.1073 24.467H20.1073C20.1073 23.6704 20.0256 22.4934 19.2253 21.4322C18.4144 20.3569 17.014 19.5879 14.7929 19.2577L14.4988 21.236ZM18.1073 25.4301C18.1073 26.4033 17.6105 27.08 16.8828 27.5611C16.1236 28.063 15.1934 28.2862 14.6183 28.302L14.6734 30.3013C15.5854 30.2762 16.886 29.9566 17.9858 29.2295C19.117 28.4816 20.1073 27.2429 20.1073 25.4301H18.1073ZM14.6458 28.3017H7.6875V30.3017H14.6458V28.3017ZM18.1073 24.467V25.4301H20.1073V24.467H18.1073Z" fill="#FED501"/>
<path d="M22.5613 11.6984L33.6469 11.6984" stroke="#FED501" stroke-width="2" stroke-linecap="round"/>
<path d="M22.9761 20.2349V29.3049" stroke="#FED501" stroke-width="2" stroke-linecap="round"/>
<path d="M22.9761 20.1757H32.1647" stroke="#FED501" stroke-width="2" stroke-linecap="round"/>
<path d="M54.7031 11.3447H52.1807L52.167 10.2852H54.457C54.8353 10.2852 55.1657 10.2214 55.4482 10.0938C55.7308 9.96615 55.9495 9.78385 56.1045 9.54688C56.264 9.30534 56.3438 9.01823 56.3438 8.68555C56.3438 8.32096 56.2731 8.02474 56.1318 7.79688C55.9951 7.56445 55.7832 7.39583 55.4961 7.29102C55.2135 7.18164 54.8535 7.12695 54.416 7.12695H52.4746V16H51.1553V6.04688H54.416C54.9264 6.04688 55.3822 6.09928 55.7832 6.2041C56.1842 6.30436 56.5238 6.46387 56.8018 6.68262C57.0843 6.89681 57.2985 7.17025 57.4443 7.50293C57.5902 7.83561 57.6631 8.23438 57.6631 8.69922C57.6631 9.10938 57.5583 9.48079 57.3486 9.81348C57.139 10.1416 56.8473 10.4105 56.4736 10.6201C56.1045 10.8298 55.6715 10.9642 55.1748 11.0234L54.7031 11.3447ZM54.6416 16H51.6611L52.4062 14.9268H54.6416C55.0609 14.9268 55.4163 14.8538 55.708 14.708C56.0042 14.5622 56.2298 14.3571 56.3848 14.0928C56.5397 13.8239 56.6172 13.5072 56.6172 13.1426C56.6172 12.7734 56.5511 12.4544 56.4189 12.1855C56.2868 11.9167 56.0794 11.7093 55.7969 11.5635C55.5143 11.4176 55.1497 11.3447 54.7031 11.3447H52.8232L52.8369 10.2852H55.4072L55.6875 10.668C56.166 10.709 56.5716 10.8457 56.9043 11.0781C57.237 11.306 57.4899 11.5977 57.6631 11.9531C57.8408 12.3086 57.9297 12.7005 57.9297 13.1289C57.9297 13.7487 57.793 14.2728 57.5195 14.7012C57.2507 15.125 56.8701 15.4486 56.3779 15.6719C55.8857 15.8906 55.307 16 54.6416 16ZM62.7559 16.1367C62.2409 16.1367 61.7738 16.0501 61.3545 15.877C60.9398 15.6992 60.582 15.4508 60.2812 15.1318C59.985 14.8128 59.7572 14.4346 59.5977 13.9971C59.4382 13.5596 59.3584 13.0811 59.3584 12.5615V12.2744C59.3584 11.6729 59.4473 11.1374 59.625 10.668C59.8027 10.194 60.0443 9.79297 60.3496 9.46484C60.6549 9.13672 61.0013 8.88835 61.3887 8.71973C61.776 8.55111 62.1771 8.4668 62.5918 8.4668C63.1204 8.4668 63.5762 8.55794 63.959 8.74023C64.3464 8.92253 64.6631 9.17773 64.9092 9.50586C65.1553 9.82943 65.3376 10.2122 65.4561 10.6543C65.5745 11.0918 65.6338 11.5703 65.6338 12.0898V12.6572H60.1104V11.625H64.3691V11.5293C64.3509 11.2012 64.2826 10.8822 64.1641 10.5723C64.0501 10.2624 63.8678 10.0072 63.6172 9.80664C63.3665 9.60612 63.0247 9.50586 62.5918 9.50586C62.3047 9.50586 62.0404 9.56738 61.7988 9.69043C61.5573 9.80892 61.3499 9.98665 61.1768 10.2236C61.0036 10.4606 60.8691 10.75 60.7734 11.0918C60.6777 11.4336 60.6299 11.8278 60.6299 12.2744V12.5615C60.6299 12.9124 60.6777 13.2428 60.7734 13.5527C60.8737 13.8581 61.0173 14.127 61.2041 14.3594C61.3955 14.5918 61.6257 14.7741 61.8945 14.9062C62.168 15.0384 62.4779 15.1045 62.8242 15.1045C63.2708 15.1045 63.6491 15.0133 63.959 14.8311C64.2689 14.6488 64.54 14.4049 64.7725 14.0996L65.5381 14.708C65.3786 14.9495 65.1758 15.1797 64.9297 15.3984C64.6836 15.6172 64.3805 15.7949 64.0205 15.9316C63.665 16.0684 63.2435 16.1367 62.7559 16.1367ZM70.207 8.60352V9.57422H66.208V8.60352H70.207ZM67.5615 6.80566H68.8262V14.168C68.8262 14.4186 68.8649 14.6077 68.9424 14.7354C69.0199 14.863 69.1201 14.9473 69.2432 14.9883C69.3662 15.0293 69.4984 15.0498 69.6396 15.0498C69.7445 15.0498 69.8538 15.0407 69.9678 15.0225C70.0863 14.9997 70.1751 14.9814 70.2344 14.9678L70.2412 16C70.141 16.0319 70.0088 16.0615 69.8447 16.0889C69.6852 16.1208 69.4915 16.1367 69.2637 16.1367C68.9538 16.1367 68.6689 16.0752 68.4092 15.9521C68.1494 15.8291 67.9421 15.624 67.7871 15.3369C67.6367 15.0452 67.5615 14.6533 67.5615 14.1611V6.80566ZM76.6738 6.04688V16H75.3545V6.04688H76.6738ZM80.8438 10.5244V11.6045H76.3867V10.5244H80.8438ZM81.5205 6.04688V7.12695H76.3867V6.04688H81.5205ZM83.9883 9.76562V16H82.7236V8.60352H83.9541L83.9883 9.76562ZM86.2988 8.5625L86.292 9.73828C86.1872 9.71549 86.0869 9.70182 85.9912 9.69727C85.9001 9.68815 85.7952 9.68359 85.6768 9.68359C85.3851 9.68359 85.1276 9.72917 84.9043 9.82031C84.681 9.91146 84.4919 10.0391 84.3369 10.2031C84.182 10.3672 84.0589 10.5632 83.9678 10.791C83.8812 11.0143 83.8242 11.2604 83.7969 11.5293L83.4414 11.7344C83.4414 11.2878 83.4847 10.8685 83.5713 10.4766C83.6624 10.0846 83.8014 9.73828 83.9883 9.4375C84.1751 9.13216 84.4121 8.89518 84.6992 8.72656C84.9909 8.55339 85.3372 8.4668 85.7383 8.4668C85.8294 8.4668 85.9342 8.47819 86.0527 8.50098C86.1712 8.51921 86.2533 8.53971 86.2988 8.5625ZM88.8418 8.60352V16H87.5703V8.60352H88.8418ZM87.4746 6.6416C87.4746 6.43652 87.5361 6.26335 87.6592 6.12207C87.7868 5.98079 87.9736 5.91016 88.2197 5.91016C88.4613 5.91016 88.6458 5.98079 88.7734 6.12207C88.9056 6.26335 88.9717 6.43652 88.9717 6.6416C88.9717 6.83757 88.9056 7.00618 88.7734 7.14746C88.6458 7.28418 88.4613 7.35254 88.2197 7.35254C87.9736 7.35254 87.7868 7.28418 87.6592 7.14746C87.5361 7.00618 87.4746 6.83757 87.4746 6.6416ZM93.9414 16.1367C93.4264 16.1367 92.9593 16.0501 92.54 15.877C92.1253 15.6992 91.7676 15.4508 91.4668 15.1318C91.1706 14.8128 90.9427 14.4346 90.7832 13.9971C90.6237 13.5596 90.5439 13.0811 90.5439 12.5615V12.2744C90.5439 11.6729 90.6328 11.1374 90.8105 10.668C90.9883 10.194 91.2298 9.79297 91.5352 9.46484C91.8405 9.13672 92.1868 8.88835 92.5742 8.71973C92.9616 8.55111 93.3626 8.4668 93.7773 8.4668C94.306 8.4668 94.7617 8.55794 95.1445 8.74023C95.5319 8.92253 95.8486 9.17773 96.0947 9.50586C96.3408 9.82943 96.5231 10.2122 96.6416 10.6543C96.7601 11.0918 96.8193 11.5703 96.8193 12.0898V12.6572H91.2959V11.625H95.5547V11.5293C95.5365 11.2012 95.4681 10.8822 95.3496 10.5723C95.2357 10.2624 95.0534 10.0072 94.8027 9.80664C94.5521 9.60612 94.2103 9.50586 93.7773 9.50586C93.4902 9.50586 93.2259 9.56738 92.9844 9.69043C92.7428 9.80892 92.5355 9.98665 92.3623 10.2236C92.1891 10.4606 92.0547 10.75 91.959 11.0918C91.8633 11.4336 91.8154 11.8278 91.8154 12.2744V12.5615C91.8154 12.9124 91.8633 13.2428 91.959 13.5527C92.0592 13.8581 92.2028 14.127 92.3896 14.3594C92.5811 14.5918 92.8112 14.7741 93.0801 14.9062C93.3535 15.0384 93.6634 15.1045 94.0098 15.1045C94.4564 15.1045 94.8346 15.0133 95.1445 14.8311C95.4544 14.6488 95.7256 14.4049 95.958 14.0996L96.7236 14.708C96.5641 14.9495 96.3613 15.1797 96.1152 15.3984C95.8691 15.6172 95.5661 15.7949 95.2061 15.9316C94.8506 16.0684 94.429 16.1367 93.9414 16.1367ZM99.5605 10.1826V16H98.2959V8.60352H99.4922L99.5605 10.1826ZM99.2598 12.0215L98.7334 12.001C98.738 11.4951 98.8132 11.028 98.959 10.5996C99.1048 10.1667 99.3099 9.79069 99.5742 9.47168C99.8385 9.15267 100.153 8.90658 100.518 8.7334C100.887 8.55566 101.295 8.4668 101.741 8.4668C102.106 8.4668 102.434 8.51693 102.726 8.61719C103.017 8.71289 103.266 8.86784 103.471 9.08203C103.68 9.29622 103.84 9.57422 103.949 9.91602C104.059 10.2533 104.113 10.6657 104.113 11.1533V16H102.842V11.1396C102.842 10.7523 102.785 10.4424 102.671 10.21C102.557 9.97298 102.391 9.80208 102.172 9.69727C101.953 9.58789 101.684 9.5332 101.365 9.5332C101.051 9.5332 100.764 9.59928 100.504 9.73145C100.249 9.86361 100.028 10.0459 99.8408 10.2783C99.6585 10.5107 99.515 10.7773 99.4102 11.0781C99.3099 11.3743 99.2598 11.6888 99.2598 12.0215ZM110.696 14.5645V5.5H111.968V16H110.806L110.696 14.5645ZM105.72 12.3838V12.2402C105.72 11.6751 105.788 11.1624 105.925 10.7021C106.066 10.2373 106.264 9.83854 106.52 9.50586C106.779 9.17318 107.087 8.91797 107.442 8.74023C107.802 8.55794 108.203 8.4668 108.646 8.4668C109.11 8.4668 109.516 8.54883 109.862 8.71289C110.213 8.8724 110.509 9.1071 110.751 9.41699C110.997 9.72233 111.191 10.0915 111.332 10.5244C111.473 10.9574 111.571 11.4473 111.626 11.9941V12.623C111.576 13.1654 111.478 13.653 111.332 14.0859C111.191 14.5189 110.997 14.888 110.751 15.1934C110.509 15.4987 110.213 15.7334 109.862 15.8975C109.511 16.057 109.101 16.1367 108.632 16.1367C108.199 16.1367 107.802 16.0433 107.442 15.8564C107.087 15.6696 106.779 15.4076 106.52 15.0703C106.264 14.7331 106.066 14.3366 105.925 13.8809C105.788 13.4206 105.72 12.9215 105.72 12.3838ZM106.991 12.2402V12.3838C106.991 12.7529 107.028 13.0993 107.101 13.4229C107.178 13.7464 107.297 14.0312 107.456 14.2773C107.616 14.5234 107.818 14.7171 108.064 14.8584C108.311 14.9951 108.604 15.0635 108.946 15.0635C109.366 15.0635 109.71 14.9746 109.979 14.7969C110.252 14.6191 110.471 14.3844 110.635 14.0928C110.799 13.8011 110.926 13.4844 111.018 13.1426V11.4951C110.963 11.2445 110.883 11.0029 110.778 10.7705C110.678 10.5335 110.546 10.3239 110.382 10.1416C110.222 9.95475 110.024 9.80664 109.787 9.69727C109.555 9.58789 109.279 9.5332 108.96 9.5332C108.614 9.5332 108.315 9.60612 108.064 9.75195C107.818 9.89323 107.616 10.0892 107.456 10.3398C107.297 10.5859 107.178 10.873 107.101 11.2012C107.028 11.5247 106.991 11.8711 106.991 12.2402ZM118.243 14.0381C118.243 13.8558 118.202 13.6872 118.12 13.5322C118.043 13.3727 117.881 13.2292 117.635 13.1016C117.393 12.9694 117.029 12.8555 116.541 12.7598C116.131 12.6732 115.759 12.5706 115.427 12.4521C115.099 12.3337 114.818 12.1901 114.586 12.0215C114.358 11.8529 114.183 11.6546 114.06 11.4268C113.937 11.1989 113.875 10.9323 113.875 10.627C113.875 10.3353 113.939 10.0596 114.066 9.7998C114.199 9.54004 114.383 9.3099 114.62 9.10938C114.862 8.90885 115.151 8.75163 115.488 8.6377C115.826 8.52376 116.201 8.4668 116.616 8.4668C117.209 8.4668 117.715 8.57161 118.134 8.78125C118.553 8.99089 118.874 9.27116 119.098 9.62207C119.321 9.96842 119.433 10.3535 119.433 10.7773H118.168C118.168 10.5723 118.106 10.374 117.983 10.1826C117.865 9.98665 117.689 9.82487 117.457 9.69727C117.229 9.56966 116.949 9.50586 116.616 9.50586C116.265 9.50586 115.98 9.56055 115.762 9.66992C115.548 9.77474 115.39 9.90918 115.29 10.0732C115.194 10.2373 115.146 10.4105 115.146 10.5928C115.146 10.7295 115.169 10.8525 115.215 10.9619C115.265 11.0667 115.352 11.1647 115.475 11.2559C115.598 11.3424 115.771 11.4245 115.994 11.502C116.217 11.5794 116.502 11.6569 116.849 11.7344C117.455 11.8711 117.954 12.0352 118.346 12.2266C118.738 12.418 119.029 12.6527 119.221 12.9307C119.412 13.2087 119.508 13.5459 119.508 13.9424C119.508 14.266 119.439 14.5622 119.303 14.8311C119.171 15.0999 118.977 15.3324 118.722 15.5283C118.471 15.7197 118.17 15.8701 117.819 15.9795C117.473 16.0843 117.083 16.1367 116.65 16.1367C115.999 16.1367 115.447 16.0205 114.996 15.7881C114.545 15.5557 114.203 15.2549 113.971 14.8857C113.738 14.5166 113.622 14.127 113.622 13.7168H114.894C114.912 14.0632 115.012 14.3389 115.194 14.5439C115.377 14.7445 115.6 14.888 115.864 14.9746C116.129 15.0566 116.391 15.0977 116.65 15.0977C116.997 15.0977 117.286 15.0521 117.519 14.9609C117.756 14.8698 117.936 14.7445 118.059 14.585C118.182 14.4255 118.243 14.2432 118.243 14.0381Z" fill="#FED501"/>
<path d="M57.3486 31.9609V33H50.834V32.0908L54.0947 28.4609C54.4958 28.0143 54.8057 27.6361 55.0244 27.3262C55.2477 27.0117 55.4027 26.7314 55.4893 26.4854C55.5804 26.2347 55.626 25.9795 55.626 25.7197C55.626 25.3916 55.5576 25.0954 55.4209 24.8311C55.2887 24.5622 55.0928 24.348 54.833 24.1885C54.5732 24.029 54.2588 23.9492 53.8896 23.9492C53.4476 23.9492 53.0785 24.0358 52.7822 24.209C52.4906 24.3776 52.2718 24.6146 52.126 24.9199C51.9801 25.2253 51.9072 25.5762 51.9072 25.9727H50.6426C50.6426 25.4121 50.7656 24.8994 51.0117 24.4346C51.2578 23.9697 51.6224 23.6006 52.1055 23.3271C52.5885 23.0492 53.1833 22.9102 53.8896 22.9102C54.5186 22.9102 55.0563 23.0218 55.5029 23.2451C55.9495 23.4639 56.2913 23.7738 56.5283 24.1748C56.7699 24.5713 56.8906 25.0361 56.8906 25.5693C56.8906 25.861 56.8405 26.1572 56.7402 26.458C56.6445 26.7542 56.5101 27.0505 56.3369 27.3467C56.1683 27.6429 55.9701 27.9346 55.7422 28.2217C55.5189 28.5088 55.2796 28.7913 55.0244 29.0693L52.3584 31.9609H57.3486ZM64.9502 27.2305V28.748C64.9502 29.5638 64.8773 30.252 64.7314 30.8125C64.5856 31.373 64.376 31.8242 64.1025 32.166C63.8291 32.5078 63.4987 32.7562 63.1113 32.9111C62.7285 33.0615 62.2956 33.1367 61.8125 33.1367C61.4297 33.1367 61.0765 33.0889 60.7529 32.9932C60.4294 32.8975 60.1377 32.7448 59.8779 32.5352C59.6227 32.321 59.404 32.043 59.2217 31.7012C59.0394 31.3594 58.9004 30.9447 58.8047 30.457C58.709 29.9694 58.6611 29.3997 58.6611 28.748V27.2305C58.6611 26.4147 58.734 25.7311 58.8799 25.1797C59.0303 24.6283 59.2422 24.1862 59.5156 23.8535C59.7891 23.5163 60.1172 23.2747 60.5 23.1289C60.8874 22.9831 61.3203 22.9102 61.7988 22.9102C62.1862 22.9102 62.5417 22.958 62.8652 23.0537C63.1934 23.1449 63.485 23.293 63.7402 23.498C63.9954 23.6986 64.2119 23.9674 64.3896 24.3047C64.5719 24.6374 64.7109 25.0452 64.8066 25.5283C64.9023 26.0114 64.9502 26.5788 64.9502 27.2305ZM63.6787 28.9531V27.0186C63.6787 26.5719 63.6514 26.18 63.5967 25.8428C63.5465 25.501 63.4714 25.2093 63.3711 24.9678C63.2708 24.7262 63.1432 24.5303 62.9883 24.3799C62.8379 24.2295 62.6624 24.1201 62.4619 24.0518C62.266 23.9788 62.0449 23.9424 61.7988 23.9424C61.498 23.9424 61.2314 23.9993 60.999 24.1133C60.7666 24.2227 60.5706 24.3981 60.4111 24.6396C60.2562 24.8812 60.1377 25.1979 60.0557 25.5898C59.9736 25.9818 59.9326 26.458 59.9326 27.0186V28.9531C59.9326 29.3997 59.9577 29.7939 60.0078 30.1357C60.0625 30.4775 60.1423 30.7738 60.2471 31.0244C60.3519 31.2705 60.4795 31.4733 60.6299 31.6328C60.7803 31.7923 60.9535 31.9108 61.1494 31.9883C61.3499 32.0612 61.571 32.0977 61.8125 32.0977C62.1224 32.0977 62.3936 32.0384 62.626 31.9199C62.8584 31.8014 63.0521 31.6169 63.207 31.3662C63.3665 31.111 63.485 30.7852 63.5625 30.3887C63.64 29.9876 63.6787 29.5091 63.6787 28.9531ZM73.0986 31.9609V33H66.584V32.0908L69.8447 28.4609C70.2458 28.0143 70.5557 27.6361 70.7744 27.3262C70.9977 27.0117 71.1527 26.7314 71.2393 26.4854C71.3304 26.2347 71.376 25.9795 71.376 25.7197C71.376 25.3916 71.3076 25.0954 71.1709 24.8311C71.0387 24.5622 70.8428 24.348 70.583 24.1885C70.3232 24.029 70.0088 23.9492 69.6396 23.9492C69.1976 23.9492 68.8285 24.0358 68.5322 24.209C68.2406 24.3776 68.0218 24.6146 67.876 24.9199C67.7301 25.2253 67.6572 25.5762 67.6572 25.9727H66.3926C66.3926 25.4121 66.5156 24.8994 66.7617 24.4346C67.0078 23.9697 67.3724 23.6006 67.8555 23.3271C68.3385 23.0492 68.9333 22.9102 69.6396 22.9102C70.2686 22.9102 70.8063 23.0218 71.2529 23.2451C71.6995 23.4639 72.0413 23.7738 72.2783 24.1748C72.5199 24.5713 72.6406 25.0361 72.6406 25.5693C72.6406 25.861 72.5905 26.1572 72.4902 26.458C72.3945 26.7542 72.2601 27.0505 72.0869 27.3467C71.9183 27.6429 71.7201 27.9346 71.4922 28.2217C71.2689 28.5088 71.0296 28.7913 70.7744 29.0693L68.1084 31.9609H73.0986ZM80.9736 31.9609V33H74.459V32.0908L77.7197 28.4609C78.1208 28.0143 78.4307 27.6361 78.6494 27.3262C78.8727 27.0117 79.0277 26.7314 79.1143 26.4854C79.2054 26.2347 79.251 25.9795 79.251 25.7197C79.251 25.3916 79.1826 25.0954 79.0459 24.8311C78.9137 24.5622 78.7178 24.348 78.458 24.1885C78.1982 24.029 77.8838 23.9492 77.5146 23.9492C77.0726 23.9492 76.7035 24.0358 76.4072 24.209C76.1156 24.3776 75.8968 24.6146 75.751 24.9199C75.6051 25.2253 75.5322 25.5762 75.5322 25.9727H74.2676C74.2676 25.4121 74.3906 24.8994 74.6367 24.4346C74.8828 23.9697 75.2474 23.6006 75.7305 23.3271C76.2135 23.0492 76.8083 22.9102 77.5146 22.9102C78.1436 22.9102 78.6813 23.0218 79.1279 23.2451C79.5745 23.4639 79.9163 23.7738 80.1533 24.1748C80.3949 24.5713 80.5156 25.0361 80.5156 25.5693C80.5156 25.861 80.4655 26.1572 80.3652 26.458C80.2695 26.7542 80.1351 27.0505 79.9619 27.3467C79.7933 27.6429 79.5951 27.9346 79.3672 28.2217C79.1439 28.5088 78.9046 28.7913 78.6494 29.0693L75.9834 31.9609H80.9736Z" fill="#FED501"/>
</svg>
