<svg width="208" height="203" viewBox="0 0 208 203" fill="none" xmlns="http://www.w3.org/2000/svg">
<path fill-rule="evenodd" clip-rule="evenodd" d="M103.585 0C46.3802 0 0 46.3716 0 103.585C0 149.352 29.6771 188.18 70.835 201.879C76.0142 202.837 77.9133 199.634 77.9133 196.898C77.9133 194.429 77.8183 186.272 77.7752 177.614C48.9612 183.881 42.8756 165.391 42.8756 165.391C38.1625 153.418 31.3777 150.233 31.3777 150.233C21.9773 143.802 32.0855 143.94 32.0855 143.94C42.4872 144.674 47.9599 154.618 47.9599 154.618C57.1962 170.449 72.1902 165.874 78.1032 163.224C79.0354 156.526 81.72 151.959 84.6808 149.37C61.6763 146.754 37.4892 137.872 37.4892 98.1814C37.4892 86.8734 41.5376 77.6284 48.1671 70.3774C47.0881 67.7619 43.5403 57.2308 49.1684 42.9619C49.1684 42.9619 57.8695 40.1824 77.6629 53.5794C85.9238 51.2833 94.7804 50.1352 103.585 50.092C112.39 50.1352 121.255 51.2833 129.533 53.5794C149.301 40.1738 157.993 42.9619 157.993 42.9619C163.63 57.2308 160.082 67.7619 159.012 70.3774C165.65 77.6284 169.672 86.8734 169.672 98.1814C169.672 137.967 145.442 146.728 122.377 149.292C126.089 152.503 129.404 158.813 129.404 168.473C129.404 182.336 129.283 193.488 129.283 196.898C129.283 199.652 131.147 202.889 136.396 201.87C177.536 188.154 207.179 149.344 207.179 103.594C207.17 46.3802 160.79 0 103.585 0Z" fill="#FED501"/>
<path d="M39.2332 148.731C39.0087 149.249 38.1973 149.404 37.455 149.05C36.704 148.714 36.281 148.006 36.5227 147.497C36.7471 146.97 37.5585 146.823 38.3095 147.177C39.0605 147.505 39.4921 148.213 39.2332 148.731Z" fill="#FED501"/>
<path d="M43.4281 153.41C42.9361 153.867 41.9693 153.651 41.3133 152.935C40.6313 152.21 40.5105 151.243 41.0111 150.785C41.5204 150.328 42.4527 150.544 43.1346 151.269C43.8166 151.985 43.9461 152.943 43.4281 153.41Z" fill="#FED501"/>
<path d="M47.5111 159.374C46.8723 159.814 45.8364 159.4 45.1976 158.485C44.5589 157.561 44.5589 156.457 45.2149 156.016C45.8537 155.576 46.8809 155.973 47.5283 156.888C48.1585 157.82 48.1585 158.925 47.5111 159.374Z" fill="#FED501"/>
<path d="M53.1045 165.141C52.5347 165.771 51.3263 165.598 50.4458 164.743C49.5394 163.906 49.2891 162.724 49.8588 162.093C50.4372 161.463 51.6543 161.645 52.5434 162.49C53.4411 163.328 53.7087 164.519 53.1045 165.141Z" fill="#FED501"/>
<path d="M60.8307 168.481C60.5804 169.293 59.4151 169.664 58.2411 169.318C57.0671 168.965 56.2989 168.015 56.5406 167.195C56.7823 166.375 57.9562 165.995 59.1388 166.366C60.3042 166.712 61.0724 167.661 60.8307 168.481Z" fill="#FED501"/>
<path d="M69.3067 169.103C69.3326 169.957 68.3399 170.665 67.1055 170.682C65.8711 170.708 64.8612 170.018 64.8525 169.18C64.8525 168.317 65.828 167.618 67.0624 167.592C68.2967 167.566 69.3067 168.257 69.3067 169.103Z" fill="#FED501"/>
<path d="M77.1968 167.765C77.3436 168.593 76.489 169.457 75.2632 169.681C74.0634 169.905 72.9498 169.388 72.7944 168.559C72.6477 167.704 73.5195 166.85 74.7194 166.625C75.9365 166.409 77.0414 166.91 77.1968 167.765Z" fill="#FED501"/>
</svg>
